<svg id="Layer_1" data-name="Layer 1" xmlns="http://www.w3.org/2000/svg" viewBox="0 0 1297.08 647.99"><defs><style>.cls-1{fill:#dffbff;}.cls-2{opacity:0.3;}.cls-3{fill:#18bdde;}.cls-4{fill:#1e90a4;}.cls-5{fill:#d5e7f7;}.cls-6{fill:#a4f7fa;}.cls-7{opacity:0.8;}.cls-8{fill:#a3c5df;}.cls-9{fill:#93ebfb;}.cls-10{fill:#fbba01;}.cls-11{fill:#bfd8f8;}.cls-12{fill:#2aabbe;}.cls-13{fill:#d03119;}.cls-14{fill:#f9b806;}.cls-15{fill:#f64a2e;}.cls-16{fill:#39608d;}.cls-17{fill:#303876;}.cls-18{fill:#fa9c65;}.cls-19{fill:#fdab74;}.cls-20{fill:#f18c4e;}.cls-21{fill:#f59964;}.cls-22{fill:#fff;}.cls-23{fill:#124171;}.cls-24{fill:#313949;}</style></defs><title>1</title><rect class="cls-1" x="0.15" width="1287" height="647"/><g class="cls-2"><rect class="cls-3" x="156.83" y="503.88" width="26.51" height="121.72"/><rect class="cls-4" x="162.79" y="503.88" width="26.51" height="121.72"/><rect class="cls-3" x="160.65" y="880.85" width="26.5" height="7.03" transform="translate(349.94 1391.73) rotate(180)"/><rect class="cls-3" x="160.65" y="896.11" width="26.5" height="7.03" transform="translate(349.94 1422.24) rotate(180)"/><rect class="cls-3" x="160.65" y="911.36" width="26.5" height="7.03" transform="translate(349.94 1452.75) rotate(180)"/><rect class="cls-3" x="160.65" y="926.61" width="26.5" height="7.03" transform="translate(349.94 1483.26) rotate(180)"/><rect class="cls-3" x="160.65" y="941.87" width="26.5" height="7.03" transform="translate(349.94 1513.77) rotate(180)"/><rect class="cls-3" x="160.65" y="957.12" width="26.5" height="7.03" transform="translate(349.94 1544.28) rotate(180)"/><rect class="cls-3" x="160.65" y="972.38" width="26.5" height="7.03" transform="translate(349.94 1574.79) rotate(180)"/><rect class="cls-3" x="160.65" y="987.63" width="26.5" height="7.03" transform="translate(349.94 1605.3) rotate(180)"/><rect class="cls-3" x="199.21" y="521.11" width="26.51" height="104.49"/><rect class="cls-4" x="205.16" y="521.11" width="26.51" height="104.49"/><rect class="cls-3" x="203.02" y="898.08" width="26.5" height="6.04" transform="translate(434.68 1425.19) rotate(180)"/><rect class="cls-3" x="203.02" y="911.17" width="26.5" height="6.04" transform="translate(434.68 1451.39) rotate(180)"/><rect class="cls-3" x="203.02" y="924.27" width="26.5" height="6.04" transform="translate(434.68 1477.58) rotate(180)"/><rect class="cls-3" x="203.02" y="937.37" width="26.5" height="6.04" transform="translate(434.68 1503.77) rotate(180)"/><rect class="cls-3" x="203.02" y="950.46" width="26.5" height="6.04" transform="translate(434.68 1529.96) rotate(180)"/><rect class="cls-3" x="203.02" y="963.56" width="26.5" height="6.04" transform="translate(434.68 1556.16) rotate(180)"/><rect class="cls-3" x="203.02" y="976.66" width="26.5" height="6.04" transform="translate(434.68 1582.35) rotate(180)"/><rect class="cls-3" x="203.02" y="989.75" width="26.5" height="6.04" transform="translate(434.68 1608.54) rotate(180)"/><rect class="cls-5" x="140.34" y="998.87" width="11.1" height="15.28" transform="translate(293.93 1636.02) rotate(180)"/><path class="cls-6" d="M143.73,978v42.43H25.36l-10.56-.09-2,0-.09-.15h2v0A147,147,0,0,1,3.49,991.81L3,990.12c-1-3.64-1.92-7.53-2.7-11.62-.24-1.25-.47-2.51-.67-3.79-.16-.92-.3-1.85-.44-2.79-.18-1.25-.34-2.51-.49-3.79-.11-1-.21-1.92-.3-2.9q-.18-1.87-.3-3.78c-.07-1.19-.13-2.4-.18-3.61A120.77,120.77,0,0,1-1.85,945c.09-1.26.21-2.52.34-3.79q.42-3.95,1.15-7.94.84-4.68,2.16-9.38c1.76-1.82,5.63,4.81,5.63,4.81H22.65V902.23H39.43V919.4h3.83V898.9H60v38.43H81.27v22.41h7.94v5.65h18.22v-9.72h10.46V929.25h12.92V978Z" transform="translate(2.15 -377)"/><rect class="cls-3" x="43.26" y="901.49" width="16.8" height="3.92" transform="translate(105.46 1429.9) rotate(180)"/><rect class="cls-3" x="43.26" y="908.85" width="16.8" height="3.92" transform="translate(105.46 1444.62) rotate(180)"/><rect class="cls-3" x="43.26" y="915.47" width="16.8" height="3.92" transform="translate(105.46 1457.85) rotate(180)"/><rect class="cls-3" x="22.65" y="915.47" width="16.79" height="3.92" transform="translate(64.25 1457.85) rotate(180)"/><rect class="cls-3" x="22.65" y="908.85" width="16.79" height="3.92" transform="translate(64.25 1444.62) rotate(180)"/><rect class="cls-3" x="22.65" y="902.24" width="16.79" height="3.92" transform="translate(64.25 1431.4) rotate(180)"/><rect class="cls-3" x="22.65" y="921.89" width="37.41" height="3.92" transform="translate(84.85 1470.69) rotate(180)"/><rect class="cls-3" x="22.65" y="928.3" width="37.41" height="3.92" transform="translate(84.85 1483.52) rotate(180)"/><rect class="cls-3" x="117.77" y="929.25" width="13.04" height="6.04" transform="translate(250.72 1487.55) rotate(180)"/><rect class="cls-3" x="117.77" y="938.24" width="13.04" height="6.04" transform="translate(250.72 1505.53) rotate(180)"/><rect class="cls-3" x="117.77" y="947.23" width="13.04" height="6.04" transform="translate(250.72 1523.51) rotate(180)"/><rect class="cls-3" x="117.77" y="956.65" width="13.04" height="6.04" transform="translate(250.72 1542.35) rotate(180)"/><rect class="cls-3" x="117.77" y="965.78" width="13.04" height="6.04" transform="translate(250.72 1560.61) rotate(180)"/><rect class="cls-3" x="117.77" y="974.91" width="13.04" height="6.04" transform="translate(250.72 1578.87) rotate(180)"/><rect class="cls-3" x="117.77" y="984.47" width="13.04" height="6.04" transform="translate(250.72 1597.98) rotate(180)"/><rect class="cls-3" x="22.65" y="934.57" width="37.41" height="2.49" transform="translate(84.85 1494.64) rotate(180)"/><rect class="cls-3" x="115.29" y="552.25" width="4.81" height="26.41"/><rect class="cls-3" x="99.91" y="578.67" width="9.67" height="9.72"/><path class="cls-3" d="M22.65,902.24v26.44H19.31V902.55l.45-.31Z" transform="translate(2.15 -377)"/><rect class="cls-3" x="43.36" y="521.9" width="2.05" height="20.48"/><g class="cls-7"><rect class="cls-3" x="74.96" y="941.19" width="2.85" height="3.79" transform="translate(154.91 1509.16) rotate(180)"/><rect class="cls-3" x="69.64" y="941.19" width="2.85" height="3.79" transform="translate(144.27 1509.16) rotate(180)"/><rect class="cls-3" x="64.44" y="941.19" width="2.85" height="3.79" transform="translate(133.87 1509.16) rotate(180)"/><rect class="cls-3" x="59.5" y="941.19" width="2.85" height="3.79" transform="translate(124 1509.16) rotate(180)"/><rect class="cls-3" x="54.48" y="941.19" width="2.85" height="3.79" transform="translate(113.95 1509.16) rotate(180)"/><rect class="cls-3" x="49.39" y="941.19" width="2.85" height="3.79" transform="translate(103.78 1509.16) rotate(180)"/><rect class="cls-3" x="44.07" y="941.19" width="2.85" height="3.79" transform="translate(93.14 1509.16) rotate(180)"/><rect class="cls-3" x="38.87" y="941.19" width="2.85" height="3.79" transform="translate(82.73 1509.16) rotate(180)"/><rect class="cls-3" x="33.94" y="941.19" width="2.85" height="3.79" transform="translate(72.87 1509.16) rotate(180)"/><rect class="cls-3" x="28.91" y="941.19" width="2.85" height="3.79" transform="translate(62.81 1509.16) rotate(180)"/><rect class="cls-3" x="23.67" y="941.19" width="2.85" height="3.79" transform="translate(52.34 1509.16) rotate(180)"/><rect class="cls-3" x="18.35" y="941.19" width="2.85" height="3.79" transform="translate(41.69 1509.16) rotate(180)"/><rect class="cls-3" x="13.15" y="941.19" width="2.85" height="3.79" transform="translate(31.29 1509.16) rotate(180)"/><rect class="cls-3" x="8.21" y="941.19" width="2.85" height="3.79" transform="translate(21.42 1509.16) rotate(180)"/><rect class="cls-3" x="3.19" y="941.19" width="2.85" height="3.79" transform="translate(11.37 1509.16) rotate(180)"/><path class="cls-3" d="M1,941.19V945h-2.8c.09-1.26.21-2.52.34-3.79Z" transform="translate(2.15 -377)"/><rect class="cls-3" x="74.96" y="947.87" width="2.85" height="3.79" transform="translate(154.91 1522.53) rotate(180)"/><rect class="cls-3" x="69.64" y="947.87" width="2.85" height="3.79" transform="translate(144.27 1522.53) rotate(180)"/><rect class="cls-3" x="64.44" y="947.87" width="2.85" height="3.79" transform="translate(133.87 1522.53) rotate(180)"/><rect class="cls-3" x="59.5" y="947.87" width="2.85" height="3.79" transform="translate(124 1522.53) rotate(180)"/><rect class="cls-3" x="54.48" y="947.87" width="2.85" height="3.79" transform="translate(113.95 1522.53) rotate(180)"/><rect class="cls-3" x="49.39" y="947.87" width="2.85" height="3.79" transform="translate(103.78 1522.53) rotate(180)"/><rect class="cls-3" x="44.07" y="947.87" width="2.85" height="3.79" transform="translate(93.14 1522.53) rotate(180)"/><rect class="cls-3" x="38.87" y="947.87" width="2.85" height="3.79" transform="translate(82.73 1522.53) rotate(180)"/><rect class="cls-3" x="33.94" y="947.87" width="2.85" height="3.79" transform="translate(72.87 1522.53) rotate(180)"/><rect class="cls-3" x="28.91" y="947.87" width="2.85" height="3.79" transform="translate(62.81 1522.53) rotate(180)"/><rect class="cls-3" x="23.67" y="947.87" width="2.85" height="3.79" transform="translate(52.34 1522.53) rotate(180)"/><rect class="cls-3" x="18.35" y="947.87" width="2.85" height="3.79" transform="translate(41.69 1522.53) rotate(180)"/><rect class="cls-3" x="13.15" y="947.87" width="2.85" height="3.79" transform="translate(31.29 1522.53) rotate(180)"/><rect class="cls-3" x="8.21" y="947.87" width="2.85" height="3.79" transform="translate(21.42 1522.53) rotate(180)"/><rect class="cls-3" x="3.19" y="947.87" width="2.85" height="3.79" transform="translate(11.37 1522.53) rotate(180)"/><rect class="cls-3" x="-1.9" y="947.87" width="2.85" height="3.79" transform="translate(1.2 1522.53) rotate(180)"/><rect class="cls-3" x="74.96" y="954.45" width="2.85" height="3.79" transform="translate(154.91 1535.69) rotate(180)"/><rect class="cls-3" x="69.64" y="954.45" width="2.85" height="3.79" transform="translate(144.27 1535.69) rotate(180)"/><rect class="cls-3" x="64.44" y="954.45" width="2.85" height="3.79" transform="translate(133.87 1535.69) rotate(180)"/><rect class="cls-3" x="59.5" y="954.45" width="2.85" height="3.79" transform="translate(124 1535.69) rotate(180)"/><rect class="cls-3" x="54.48" y="954.45" width="2.85" height="3.79" transform="translate(113.95 1535.69) rotate(180)"/><rect class="cls-3" x="49.39" y="954.45" width="2.85" height="3.79" transform="translate(103.78 1535.69) rotate(180)"/><rect class="cls-3" x="44.07" y="954.45" width="2.85" height="3.79" transform="translate(93.14 1535.69) rotate(180)"/><rect class="cls-3" x="38.87" y="954.45" width="2.85" height="3.79" transform="translate(82.73 1535.69) rotate(180)"/><rect class="cls-3" x="33.94" y="954.45" width="2.85" height="3.79" transform="translate(72.87 1535.69) rotate(180)"/><rect class="cls-3" x="28.91" y="954.45" width="2.85" height="3.79" transform="translate(62.81 1535.69) rotate(180)"/><rect class="cls-3" x="23.67" y="954.45" width="2.85" height="3.79" transform="translate(52.34 1535.69) rotate(180)"/><rect class="cls-3" x="18.35" y="954.45" width="2.85" height="3.79" transform="translate(41.69 1535.69) rotate(180)"/><rect class="cls-3" x="13.15" y="954.45" width="2.85" height="3.79" transform="translate(31.29 1535.69) rotate(180)"/><rect class="cls-3" x="8.21" y="954.45" width="2.85" height="3.79" transform="translate(21.42 1535.69) rotate(180)"/><rect class="cls-3" x="3.19" y="954.45" width="2.85" height="3.79" transform="translate(11.37 1535.69) rotate(180)"/><rect class="cls-3" x="-1.9" y="954.45" width="2.85" height="3.79" transform="translate(1.2 1535.69) rotate(180)"/><rect class="cls-3" x="74.96" y="961.45" width="2.85" height="3.79" transform="translate(154.91 1549.68) rotate(180)"/><rect class="cls-3" x="69.64" y="961.45" width="2.85" height="3.79" transform="translate(144.27 1549.68) rotate(180)"/><rect class="cls-3" x="64.44" y="961.45" width="2.85" height="3.79" transform="translate(133.87 1549.68) rotate(180)"/><rect class="cls-3" x="59.5" y="961.45" width="2.85" height="3.79" transform="translate(124 1549.68) rotate(180)"/><rect class="cls-3" x="54.48" y="961.45" width="2.85" height="3.79" transform="translate(113.95 1549.68) rotate(180)"/><rect class="cls-3" x="49.39" y="961.45" width="2.85" height="3.79" transform="translate(103.78 1549.68) rotate(180)"/><rect class="cls-3" x="44.07" y="961.45" width="2.85" height="3.79" transform="translate(93.14 1549.68) rotate(180)"/><rect class="cls-3" x="38.87" y="961.45" width="2.85" height="3.79" transform="translate(82.73 1549.68) rotate(180)"/><rect class="cls-3" x="33.94" y="961.45" width="2.85" height="3.79" transform="translate(72.87 1549.68) rotate(180)"/><rect class="cls-3" x="28.91" y="961.45" width="2.85" height="3.79" transform="translate(62.81 1549.68) rotate(180)"/><rect class="cls-3" x="23.67" y="961.45" width="2.85" height="3.79" transform="translate(52.34 1549.68) rotate(180)"/><rect class="cls-3" x="18.35" y="961.45" width="2.85" height="3.79" transform="translate(41.69 1549.68) rotate(180)"/><rect class="cls-3" x="13.15" y="961.45" width="2.85" height="3.79" transform="translate(31.29 1549.68) rotate(180)"/><rect class="cls-3" x="8.21" y="961.45" width="2.85" height="3.79" transform="translate(21.42 1549.68) rotate(180)"/><rect class="cls-3" x="3.19" y="961.45" width="2.85" height="3.79" transform="translate(11.37 1549.68) rotate(180)"/><path class="cls-3" d="M1,961.45v3.78H-1.59q-.18-1.87-.3-3.78Z" transform="translate(2.15 -377)"/><rect class="cls-3" x="74.96" y="968.13" width="2.85" height="3.79" transform="translate(154.91 1563.05) rotate(180)"/><rect class="cls-3" x="69.64" y="968.13" width="2.85" height="3.79" transform="translate(144.27 1563.05) rotate(180)"/><rect class="cls-3" x="64.44" y="968.13" width="2.85" height="3.79" transform="translate(133.87 1563.05) rotate(180)"/><rect class="cls-3" x="59.5" y="968.13" width="2.85" height="3.79" transform="translate(124 1563.05) rotate(180)"/><rect class="cls-3" x="54.48" y="968.13" width="2.85" height="3.79" transform="translate(113.95 1563.05) rotate(180)"/><rect class="cls-3" x="49.39" y="968.13" width="2.85" height="3.79" transform="translate(103.78 1563.05) rotate(180)"/><rect class="cls-3" x="44.07" y="968.13" width="2.85" height="3.79" transform="translate(93.14 1563.05) rotate(180)"/><rect class="cls-3" x="38.87" y="968.13" width="2.85" height="3.79" transform="translate(82.73 1563.05) rotate(180)"/><rect class="cls-3" x="33.94" y="968.13" width="2.85" height="3.79" transform="translate(72.87 1563.05) rotate(180)"/><rect class="cls-3" x="28.91" y="968.13" width="2.85" height="3.79" transform="translate(62.81 1563.05) rotate(180)"/><rect class="cls-3" x="23.67" y="968.13" width="2.85" height="3.79" transform="translate(52.34 1563.05) rotate(180)"/><rect class="cls-3" x="18.35" y="968.13" width="2.85" height="3.79" transform="translate(41.69 1563.05) rotate(180)"/><rect class="cls-3" x="13.15" y="968.13" width="2.85" height="3.79" transform="translate(31.29 1563.05) rotate(180)"/><rect class="cls-3" x="8.21" y="968.13" width="2.85" height="3.79" transform="translate(21.42 1563.05) rotate(180)"/><rect class="cls-3" x="3.19" y="968.13" width="2.85" height="3.79" transform="translate(11.37 1563.05) rotate(180)"/><path class="cls-3" d="M1,968.13v3.79H-.8c-.18-1.25-.34-2.51-.49-3.79Z" transform="translate(2.15 -377)"/><rect class="cls-3" x="74.96" y="974.71" width="2.85" height="3.79" transform="translate(154.91 1576.21) rotate(180)"/><rect class="cls-3" x="69.64" y="974.71" width="2.85" height="3.79" transform="translate(144.27 1576.21) rotate(180)"/><rect class="cls-3" x="64.44" y="974.71" width="2.85" height="3.79" transform="translate(133.87 1576.21) rotate(180)"/><rect class="cls-3" x="59.5" y="974.71" width="2.85" height="3.79" transform="translate(124 1576.21) rotate(180)"/><rect class="cls-3" x="54.48" y="974.71" width="2.85" height="3.79" transform="translate(113.95 1576.21) rotate(180)"/><rect class="cls-3" x="49.39" y="974.71" width="2.85" height="3.79" transform="translate(103.78 1576.21) rotate(180)"/><rect class="cls-3" x="44.07" y="974.71" width="2.85" height="3.79" transform="translate(93.14 1576.21) rotate(180)"/><rect class="cls-3" x="38.87" y="974.71" width="2.85" height="3.79" transform="translate(82.73 1576.21) rotate(180)"/><rect class="cls-3" x="33.94" y="974.71" width="2.85" height="3.79" transform="translate(72.87 1576.21) rotate(180)"/><rect class="cls-3" x="28.91" y="974.71" width="2.85" height="3.79" transform="translate(62.81 1576.21) rotate(180)"/><rect class="cls-3" x="23.67" y="974.71" width="2.85" height="3.79" transform="translate(52.34 1576.21) rotate(180)"/><rect class="cls-3" x="18.35" y="974.71" width="2.85" height="3.79" transform="translate(41.69 1576.21) rotate(180)"/><rect class="cls-3" x="13.15" y="974.71" width="2.85" height="3.79" transform="translate(31.29 1576.21) rotate(180)"/><rect class="cls-3" x="8.21" y="974.71" width="2.85" height="3.79" transform="translate(21.42 1576.21) rotate(180)"/><rect class="cls-3" x="3.19" y="974.71" width="2.85" height="3.79" transform="translate(11.37 1576.21) rotate(180)"/><path class="cls-3" d="M1,974.71v3.79H.31c-.24-1.25-.47-2.51-.67-3.79Z" transform="translate(2.15 -377)"/></g><rect class="cls-3" x="31.8" y="986.58" width="65.95" height="33.6" transform="translate(131.71 1629.75) rotate(180)"/><rect class="cls-3" x="81.82" y="1003.38" width="65.95" height="16.8" transform="translate(231.73 1646.55) rotate(180)"/><path class="cls-3" d="M26.52,991.81v28.37H14.71v0A147,147,0,0,1,3.49,991.81Z" transform="translate(2.15 -377)"/><rect class="cls-4" x="81.06" y="990.51" width="12.29" height="6.22" transform="translate(176.56 1610.25) rotate(180)"/><rect class="cls-4" x="65.29" y="990.51" width="12.29" height="6.22" transform="translate(145.02 1610.25) rotate(180)"/><rect class="cls-4" x="49.82" y="990.51" width="12.29" height="6.22" transform="translate(114.07 1610.25) rotate(180)"/><rect class="cls-4" x="34.64" y="990.51" width="12.29" height="6.22" transform="translate(83.72 1610.25) rotate(180)"/><rect class="cls-8" x="26.16" y="986.58" width="6.33" height="33.89" transform="translate(60.8 1630.04) rotate(180)"/><rect class="cls-5" x="127.87" y="926.62" width="0.34" height="2.63" transform="translate(258.22 1478.87) rotate(180)"/><rect class="cls-5" x="115.55" y="926.62" width="0.34" height="2.63" transform="translate(233.59 1478.87) rotate(180)"/><rect class="cls-4" x="135.28" y="991.14" width="45.29" height="28.76" transform="translate(318 1634.05) rotate(180)"/><rect class="cls-3" x="135.28" y="987.39" width="45.29" height="9.35" transform="translate(318 1607.12) rotate(180)"/><rect class="cls-3" x="175.16" y="999.51" width="2.33" height="3.1" transform="translate(354.79 1625.11) rotate(180)"/><rect class="cls-3" x="170.81" y="999.51" width="2.33" height="3.1" transform="translate(346.1 1625.11) rotate(180)"/><rect class="cls-3" x="166.56" y="999.51" width="2.33" height="3.1" transform="translate(337.59 1625.11) rotate(180)"/><rect class="cls-3" x="162.53" y="999.51" width="2.33" height="3.1" transform="translate(329.53 1625.11) rotate(180)"/><rect class="cls-3" x="158.42" y="999.51" width="2.33" height="3.1" transform="translate(321.31 1625.11) rotate(180)"/><rect class="cls-3" x="154.26" y="999.51" width="2.33" height="3.1" transform="translate(313 1625.11) rotate(180)"/><rect class="cls-3" x="149.91" y="999.51" width="2.33" height="3.1" transform="translate(304.3 1625.11) rotate(180)"/><rect class="cls-3" x="145.66" y="999.51" width="2.33" height="3.1" transform="translate(295.8 1625.11) rotate(180)"/><rect class="cls-3" x="141.63" y="999.51" width="2.33" height="3.1" transform="translate(287.74 1625.11) rotate(180)"/><rect class="cls-3" x="137.52" y="999.51" width="2.33" height="3.1" transform="translate(279.52 1625.11) rotate(180)"/><rect class="cls-3" x="175.16" y="1004.97" width="2.33" height="3.1" transform="translate(354.79 1636.03) rotate(180)"/><rect class="cls-3" x="170.81" y="1004.97" width="2.33" height="3.1" transform="translate(346.1 1636.03) rotate(180)"/><rect class="cls-3" x="166.56" y="1004.97" width="2.33" height="3.1" transform="translate(337.59 1636.03) rotate(180)"/><rect class="cls-3" x="162.53" y="1004.97" width="2.33" height="3.1" transform="translate(329.53 1636.03) rotate(180)"/><rect class="cls-3" x="158.42" y="1004.97" width="2.33" height="3.1" transform="translate(321.31 1636.03) rotate(180)"/><rect class="cls-3" x="154.26" y="1004.97" width="2.33" height="3.1" transform="translate(313 1636.03) rotate(180)"/><rect class="cls-3" x="149.91" y="1004.97" width="2.33" height="3.1" transform="translate(304.3 1636.03) rotate(180)"/><rect class="cls-3" x="145.66" y="1004.97" width="2.33" height="3.1" transform="translate(295.8 1636.03) rotate(180)"/><rect class="cls-3" x="141.63" y="1004.97" width="2.33" height="3.1" transform="translate(287.74 1636.03) rotate(180)"/><rect class="cls-3" x="137.52" y="1004.97" width="2.33" height="3.1" transform="translate(279.52 1636.03) rotate(180)"/><rect class="cls-3" x="175.16" y="1010.35" width="2.33" height="3.1" transform="translate(354.79 1646.79) rotate(180)"/><rect class="cls-3" x="170.81" y="1010.35" width="2.33" height="3.1" transform="translate(346.1 1646.79) rotate(180)"/><rect class="cls-3" x="166.56" y="1010.35" width="2.33" height="3.1" transform="translate(337.59 1646.79) rotate(180)"/><rect class="cls-3" x="162.53" y="1010.35" width="2.33" height="3.1" transform="translate(329.53 1646.79) rotate(180)"/><rect class="cls-3" x="158.42" y="1010.35" width="2.33" height="3.1" transform="translate(321.31 1646.79) rotate(180)"/><rect class="cls-3" x="154.26" y="1010.35" width="2.33" height="3.1" transform="translate(313 1646.79) rotate(180)"/><rect class="cls-3" x="149.91" y="1010.35" width="2.33" height="3.1" transform="translate(304.3 1646.79) rotate(180)"/><rect class="cls-3" x="145.66" y="1010.35" width="2.33" height="3.1" transform="translate(295.8 1646.79) rotate(180)"/><rect class="cls-3" x="141.63" y="1010.35" width="2.33" height="3.1" transform="translate(287.74 1646.79) rotate(180)"/><rect class="cls-3" x="137.52" y="1010.35" width="2.33" height="3.1" transform="translate(279.52 1646.79) rotate(180)"/><rect class="cls-8" x="175.16" y="990.01" width="1.95" height="3.19" transform="translate(354.42 1606.22) rotate(180)"/><rect class="cls-8" x="155.76" y="990.01" width="1.95" height="3.19" transform="translate(315.62 1606.22) rotate(180)"/><rect class="cls-8" x="140.32" y="990.01" width="1.95" height="3.19" transform="translate(284.75 1606.22) rotate(180)"/><rect class="cls-4" x="183.41" y="991.14" width="45.29" height="28.76" transform="translate(414.26 1634.05) rotate(180)"/><rect class="cls-3" x="183.41" y="987.39" width="45.29" height="9.35" transform="translate(414.26 1607.12) rotate(180)"/><rect class="cls-3" x="223.29" y="999.51" width="2.33" height="3.1" transform="translate(451.05 1625.11) rotate(180)"/><rect class="cls-3" x="218.94" y="999.51" width="2.33" height="3.1" transform="translate(442.35 1625.11) rotate(180)"/><rect class="cls-3" x="214.69" y="999.51" width="2.33" height="3.1" transform="translate(433.85 1625.11) rotate(180)"/><rect class="cls-3" x="210.66" y="999.51" width="2.33" height="3.1" transform="translate(425.79 1625.11) rotate(180)"/><rect class="cls-3" x="206.55" y="999.51" width="2.33" height="3.1" transform="translate(417.57 1625.11) rotate(180)"/><rect class="cls-3" x="202.39" y="999.51" width="2.33" height="3.1" transform="translate(409.26 1625.11) rotate(180)"/><rect class="cls-3" x="198.04" y="999.51" width="2.33" height="3.1" transform="translate(400.56 1625.11) rotate(180)"/><rect class="cls-3" x="193.79" y="999.51" width="2.33" height="3.1" transform="translate(392.06 1625.11) rotate(180)"/><rect class="cls-3" x="189.76" y="999.51" width="2.33" height="3.1" transform="translate(383.99 1625.11) rotate(180)"/><rect class="cls-3" x="185.65" y="999.51" width="2.33" height="3.1" transform="translate(375.78 1625.11) rotate(180)"/><rect class="cls-3" x="223.29" y="1004.97" width="2.33" height="3.1" transform="translate(451.05 1636.03) rotate(180)"/><rect class="cls-3" x="218.94" y="1004.97" width="2.33" height="3.1" transform="translate(442.35 1636.03) rotate(180)"/><rect class="cls-3" x="214.69" y="1004.97" width="2.33" height="3.1" transform="translate(433.85 1636.03) rotate(180)"/><rect class="cls-3" x="210.66" y="1004.97" width="2.33" height="3.1" transform="translate(425.79 1636.03) rotate(180)"/><rect class="cls-3" x="206.55" y="1004.97" width="2.33" height="3.1" transform="translate(417.57 1636.03) rotate(180)"/><rect class="cls-3" x="202.39" y="1004.97" width="2.33" height="3.1" transform="translate(409.26 1636.03) rotate(180)"/><rect class="cls-3" x="198.04" y="1004.97" width="2.33" height="3.1" transform="translate(400.56 1636.03) rotate(180)"/><rect class="cls-3" x="193.79" y="1004.97" width="2.33" height="3.1" transform="translate(392.06 1636.03) rotate(180)"/><rect class="cls-3" x="189.76" y="1004.97" width="2.33" height="3.1" transform="translate(383.99 1636.03) rotate(180)"/><rect class="cls-3" x="185.65" y="1004.97" width="2.33" height="3.1" transform="translate(375.78 1636.03) rotate(180)"/><rect class="cls-3" x="223.29" y="1010.35" width="2.33" height="3.1" transform="translate(451.05 1646.79) rotate(180)"/><rect class="cls-3" x="218.94" y="1010.35" width="2.33" height="3.1" transform="translate(442.35 1646.79) rotate(180)"/><rect class="cls-3" x="214.69" y="1010.35" width="2.33" height="3.1" transform="translate(433.85 1646.79) rotate(180)"/><rect class="cls-3" x="210.66" y="1010.35" width="2.33" height="3.1" transform="translate(425.79 1646.79) rotate(180)"/><rect class="cls-3" x="206.55" y="1010.35" width="2.33" height="3.1" transform="translate(417.57 1646.79) rotate(180)"/><rect class="cls-3" x="202.39" y="1010.35" width="2.33" height="3.1" transform="translate(409.26 1646.79) rotate(180)"/><rect class="cls-3" x="198.04" y="1010.35" width="2.33" height="3.1" transform="translate(400.56 1646.79) rotate(180)"/><rect class="cls-3" x="193.79" y="1010.35" width="2.33" height="3.1" transform="translate(392.06 1646.79) rotate(180)"/><rect class="cls-3" x="189.76" y="1010.35" width="2.33" height="3.1" transform="translate(383.99 1646.79) rotate(180)"/><rect class="cls-3" x="185.65" y="1010.35" width="2.33" height="3.1" transform="translate(375.78 1646.79) rotate(180)"/><rect class="cls-8" x="223.29" y="990.01" width="1.95" height="3.19" transform="translate(450.68 1606.22) rotate(180)"/><rect class="cls-8" x="203.89" y="990.01" width="1.95" height="3.19" transform="translate(411.88 1606.22) rotate(180)"/><rect class="cls-8" x="188.45" y="990.01" width="1.95" height="3.19" transform="translate(381.01 1606.22) rotate(180)"/><rect class="cls-4" x="231.65" y="991.14" width="45.29" height="28.76" transform="translate(510.73 1634.05) rotate(180)"/><rect class="cls-3" x="231.65" y="987.39" width="45.29" height="9.35" transform="translate(510.73 1607.12) rotate(180)"/><rect class="cls-3" x="271.53" y="999.51" width="2.33" height="3.1" transform="translate(547.52 1625.11) rotate(180)"/><rect class="cls-3" x="267.18" y="999.51" width="2.33" height="3.1" transform="translate(538.83 1625.11) rotate(180)"/><rect class="cls-3" x="262.92" y="999.51" width="2.33" height="3.1" transform="translate(530.32 1625.11) rotate(180)"/><rect class="cls-3" x="258.89" y="999.51" width="2.33" height="3.1" transform="translate(522.26 1625.11) rotate(180)"/><rect class="cls-3" x="254.78" y="999.51" width="2.33" height="3.1" transform="translate(514.04 1625.11) rotate(180)"/><rect class="cls-3" x="250.63" y="999.51" width="2.33" height="3.1" transform="translate(505.73 1625.11) rotate(180)"/><rect class="cls-3" x="246.28" y="999.51" width="2.33" height="3.1" transform="translate(497.03 1625.11) rotate(180)"/><rect class="cls-3" x="242.03" y="999.51" width="2.33" height="3.1" transform="translate(488.53 1625.11) rotate(180)"/><rect class="cls-3" x="238" y="999.51" width="2.33" height="3.1" transform="translate(480.47 1625.11) rotate(180)"/><rect class="cls-3" x="233.89" y="999.51" width="2.33" height="3.1" transform="translate(472.25 1625.11) rotate(180)"/><rect class="cls-3" x="271.53" y="1004.97" width="2.33" height="3.1" transform="translate(547.52 1636.03) rotate(180)"/><rect class="cls-3" x="267.18" y="1004.97" width="2.33" height="3.1" transform="translate(538.83 1636.03) rotate(180)"/><rect class="cls-3" x="262.92" y="1004.97" width="2.33" height="3.1" transform="translate(530.32 1636.03) rotate(180)"/><rect class="cls-3" x="258.89" y="1004.97" width="2.33" height="3.1" transform="translate(522.26 1636.03) rotate(180)"/><rect class="cls-3" x="254.78" y="1004.97" width="2.33" height="3.1" transform="translate(514.04 1636.03) rotate(180)"/><rect class="cls-3" x="250.63" y="1004.97" width="2.33" height="3.1" transform="translate(505.73 1636.03) rotate(180)"/><rect class="cls-3" x="246.28" y="1004.97" width="2.33" height="3.1" transform="translate(497.03 1636.03) rotate(180)"/><rect class="cls-3" x="242.03" y="1004.97" width="2.33" height="3.1" transform="translate(488.53 1636.03) rotate(180)"/><rect class="cls-3" x="238" y="1004.97" width="2.33" height="3.1" transform="translate(480.47 1636.03) rotate(180)"/><rect class="cls-3" x="233.89" y="1004.97" width="2.33" height="3.1" transform="translate(472.25 1636.03) rotate(180)"/><rect class="cls-3" x="271.53" y="1010.35" width="2.33" height="3.1" transform="translate(547.52 1646.79) rotate(180)"/><rect class="cls-3" x="267.18" y="1010.35" width="2.33" height="3.1" transform="translate(538.83 1646.79) rotate(180)"/><rect class="cls-3" x="262.92" y="1010.35" width="2.33" height="3.1" transform="translate(530.32 1646.79) rotate(180)"/><rect class="cls-3" x="258.89" y="1010.35" width="2.33" height="3.1" transform="translate(522.26 1646.79) rotate(180)"/><rect class="cls-3" x="254.78" y="1010.35" width="2.33" height="3.1" transform="translate(514.04 1646.79) rotate(180)"/><rect class="cls-3" x="250.63" y="1010.35" width="2.33" height="3.1" transform="translate(505.73 1646.79) rotate(180)"/><rect class="cls-3" x="246.28" y="1010.35" width="2.33" height="3.1" transform="translate(497.03 1646.79) rotate(180)"/><rect class="cls-3" x="242.03" y="1010.35" width="2.33" height="3.1" transform="translate(488.53 1646.79) rotate(180)"/><rect class="cls-3" x="238" y="1010.35" width="2.33" height="3.1" transform="translate(480.47 1646.79) rotate(180)"/><rect class="cls-3" x="233.89" y="1010.35" width="2.33" height="3.1" transform="translate(472.25 1646.79) rotate(180)"/><rect class="cls-8" x="271.53" y="990.01" width="1.95" height="3.19" transform="translate(547.15 1606.22) rotate(180)"/><rect class="cls-8" x="252.12" y="990.01" width="1.95" height="3.19" transform="translate(508.35 1606.22) rotate(180)"/><rect class="cls-8" x="236.69" y="990.01" width="1.95" height="3.19" transform="translate(477.48 1606.22) rotate(180)"/></g><g class="cls-2"><rect class="cls-3" x="1088.7" y="865.04" width="29.82" height="139.02" transform="translate(2209.36 1492.1) rotate(-180)"/><rect class="cls-4" x="1082" y="865.04" width="29.82" height="139.02" transform="translate(2195.97 1492.1) rotate(-180)"/><rect class="cls-3" x="1084.15" y="488" width="29.81" height="8.03"/><rect class="cls-3" x="1084.15" y="505.42" width="29.81" height="8.03"/><rect class="cls-3" x="1084.15" y="522.85" width="29.81" height="8.03"/><rect class="cls-3" x="1084.15" y="540.27" width="29.81" height="8.03"/><rect class="cls-3" x="1084.15" y="557.69" width="29.81" height="8.03"/><rect class="cls-3" x="1084.15" y="575.12" width="29.81" height="8.03"/><rect class="cls-3" x="1084.15" y="592.54" width="29.81" height="8.03"/><rect class="cls-3" x="1084.15" y="609.97" width="29.81" height="8.03"/><rect class="cls-3" x="1041.04" y="884.71" width="29.82" height="119.35" transform="translate(2114.04 1511.77) rotate(-180)"/><rect class="cls-4" x="1034.34" y="884.71" width="29.82" height="119.35" transform="translate(2100.64 1511.77) rotate(-180)"/><rect class="cls-3" x="1036.49" y="507.68" width="29.81" height="6.9"/><rect class="cls-3" x="1036.49" y="522.64" width="29.81" height="6.9"/><rect class="cls-3" x="1036.49" y="537.59" width="29.81" height="6.9"/><rect class="cls-3" x="1036.49" y="552.55" width="29.81" height="6.9"/><rect class="cls-3" x="1036.49" y="567.51" width="29.81" height="6.9"/><rect class="cls-3" x="1036.49" y="582.47" width="29.81" height="6.9"/><rect class="cls-3" x="1036.49" y="597.43" width="29.81" height="6.9"/><rect class="cls-3" x="1036.49" y="612.38" width="29.81" height="6.9"/><rect class="cls-5" x="1124.31" y="622.8" width="12.49" height="17.46"/><path class="cls-6" d="M1130.84,976v48.47H1264l11.88-.11,2.2,0,.1-.17H1276v0a169.13,169.13,0,0,0,12.61-32.38l.54-1.93c1.12-4.16,2.16-8.61,3-13.28.27-1.42.52-2.86.76-4.32.17-1.06.33-2.12.48-3.2.21-1.42.39-2.86.55-4.32.13-1.1.24-2.2.34-3.31.14-1.43.25-2.87.34-4.33s.16-2.73.2-4.11a137,137,0,0,0-.25-14.7c-.1-1.43-.22-2.87-.37-4.32-.32-3-.74-6-1.29-9.08-.64-3.55-1.44-7.13-2.44-10.71-2-2.08-6.33,5.5-6.33,5.5H1267V889.42h-18.88V909h-4.3V885.62H1225v43.89h-23.89v25.6h-8.92v6.45h-20.49V950.45h-11.77V920.28h-14.54V976Z" transform="translate(2.15 -377)"/><rect class="cls-3" x="1227.11" y="511.58" width="18.89" height="4.47"/><rect class="cls-3" x="1227.11" y="519.98" width="18.89" height="4.47"/><rect class="cls-3" x="1227.11" y="527.54" width="18.89" height="4.47"/><rect class="cls-3" x="1250.29" y="527.54" width="18.89" height="4.47"/><rect class="cls-3" x="1250.29" y="519.98" width="18.89" height="4.47"/><rect class="cls-3" x="1250.29" y="512.43" width="18.89" height="4.47"/><rect class="cls-3" x="1227.11" y="534.87" width="42.08" height="4.47"/><rect class="cls-3" x="1227.11" y="542.2" width="42.08" height="4.47"/><rect class="cls-3" x="1147.53" y="543.28" width="14.66" height="6.9"/><rect class="cls-3" x="1147.53" y="553.55" width="14.66" height="6.9"/><rect class="cls-3" x="1147.53" y="563.82" width="14.66" height="6.9"/><rect class="cls-3" x="1147.53" y="574.58" width="14.66" height="6.9"/><rect class="cls-3" x="1147.53" y="585.01" width="14.66" height="6.9"/><rect class="cls-3" x="1147.53" y="595.44" width="14.66" height="6.9"/><rect class="cls-3" x="1147.53" y="606.35" width="14.66" height="6.9"/><rect class="cls-3" x="1227.11" y="549.36" width="42.08" height="2.84"/><rect class="cls-3" x="1161.99" y="543.28" width="5.41" height="30.17"/><rect class="cls-3" x="1173.83" y="573.45" width="10.88" height="11.1"/><path class="cls-3" d="M1267,889.43v30.2h3.75V889.79l-.5-.36Z" transform="translate(2.15 -377)"/><rect class="cls-3" x="1246" y="508.62" width="2.3" height="23.4"/><g class="cls-7"><rect class="cls-3" x="1207.14" y="556.92" width="3.2" height="4.33"/><rect class="cls-3" x="1213.13" y="556.92" width="3.2" height="4.33"/><rect class="cls-3" x="1218.98" y="556.92" width="3.2" height="4.33"/><rect class="cls-3" x="1224.53" y="556.92" width="3.2" height="4.33"/><rect class="cls-3" x="1230.19" y="556.92" width="3.2" height="4.33"/><rect class="cls-3" x="1235.9" y="556.92" width="3.2" height="4.33"/><rect class="cls-3" x="1241.89" y="556.92" width="3.2" height="4.33"/><rect class="cls-3" x="1247.74" y="556.92" width="3.2" height="4.33"/><rect class="cls-3" x="1253.29" y="556.92" width="3.2" height="4.33"/><rect class="cls-3" x="1258.95" y="556.92" width="3.2" height="4.33"/><rect class="cls-3" x="1264.84" y="556.92" width="3.2" height="4.33"/><rect class="cls-3" x="1270.82" y="556.92" width="3.2" height="4.33"/><rect class="cls-3" x="1276.68" y="556.92" width="3.2" height="4.33"/><rect class="cls-3" x="1282.22" y="556.92" width="3.2" height="4.33"/><rect class="cls-3" x="1287.88" y="556.92" width="3.2" height="4.33"/><path class="cls-3" d="M1291.45,933.92v4.32h3.14c-.1-1.43-.22-2.87-.37-4.32Z" transform="translate(2.15 -377)"/><rect class="cls-3" x="1207.14" y="564.55" width="3.2" height="4.33"/><rect class="cls-3" x="1213.13" y="564.55" width="3.2" height="4.33"/><rect class="cls-3" x="1218.98" y="564.55" width="3.2" height="4.33"/><rect class="cls-3" x="1224.53" y="564.55" width="3.2" height="4.33"/><rect class="cls-3" x="1230.19" y="564.55" width="3.2" height="4.33"/><rect class="cls-3" x="1235.9" y="564.55" width="3.2" height="4.33"/><rect class="cls-3" x="1241.89" y="564.55" width="3.2" height="4.33"/><rect class="cls-3" x="1247.74" y="564.55" width="3.2" height="4.33"/><rect class="cls-3" x="1253.29" y="564.55" width="3.2" height="4.33"/><rect class="cls-3" x="1258.95" y="564.55" width="3.2" height="4.33"/><rect class="cls-3" x="1264.84" y="564.55" width="3.2" height="4.33"/><rect class="cls-3" x="1270.82" y="564.55" width="3.2" height="4.33"/><rect class="cls-3" x="1276.68" y="564.55" width="3.2" height="4.33"/><rect class="cls-3" x="1282.22" y="564.55" width="3.2" height="4.33"/><rect class="cls-3" x="1287.88" y="564.55" width="3.2" height="4.33"/><rect class="cls-3" x="1293.6" y="564.55" width="3.2" height="4.33"/><rect class="cls-3" x="1207.14" y="572.07" width="3.2" height="4.33"/><rect class="cls-3" x="1213.13" y="572.07" width="3.2" height="4.33"/><rect class="cls-3" x="1218.98" y="572.07" width="3.2" height="4.33"/><rect class="cls-3" x="1224.53" y="572.07" width="3.2" height="4.33"/><rect class="cls-3" x="1230.19" y="572.07" width="3.2" height="4.33"/><rect class="cls-3" x="1235.9" y="572.07" width="3.2" height="4.33"/><rect class="cls-3" x="1241.89" y="572.07" width="3.2" height="4.33"/><rect class="cls-3" x="1247.74" y="572.07" width="3.2" height="4.33"/><rect class="cls-3" x="1253.29" y="572.07" width="3.2" height="4.33"/><rect class="cls-3" x="1258.95" y="572.07" width="3.2" height="4.33"/><rect class="cls-3" x="1264.84" y="572.07" width="3.2" height="4.33"/><rect class="cls-3" x="1270.82" y="572.07" width="3.2" height="4.33"/><rect class="cls-3" x="1276.68" y="572.07" width="3.2" height="4.33"/><rect class="cls-3" x="1282.22" y="572.07" width="3.2" height="4.33"/><rect class="cls-3" x="1287.88" y="572.07" width="3.2" height="4.33"/><rect class="cls-3" x="1293.6" y="572.07" width="3.2" height="4.33"/><rect class="cls-3" x="1207.14" y="580.05" width="3.2" height="4.33"/><rect class="cls-3" x="1213.13" y="580.05" width="3.2" height="4.33"/><rect class="cls-3" x="1218.98" y="580.05" width="3.2" height="4.33"/><rect class="cls-3" x="1224.53" y="580.05" width="3.2" height="4.33"/><rect class="cls-3" x="1230.19" y="580.05" width="3.2" height="4.33"/><rect class="cls-3" x="1235.9" y="580.05" width="3.2" height="4.33"/><rect class="cls-3" x="1241.89" y="580.05" width="3.2" height="4.33"/><rect class="cls-3" x="1247.74" y="580.05" width="3.2" height="4.33"/><rect class="cls-3" x="1253.29" y="580.05" width="3.2" height="4.33"/><rect class="cls-3" x="1258.95" y="580.05" width="3.2" height="4.33"/><rect class="cls-3" x="1264.84" y="580.05" width="3.2" height="4.33"/><rect class="cls-3" x="1270.82" y="580.05" width="3.2" height="4.33"/><rect class="cls-3" x="1276.68" y="580.05" width="3.2" height="4.33"/><rect class="cls-3" x="1282.22" y="580.05" width="3.2" height="4.33"/><rect class="cls-3" x="1287.88" y="580.05" width="3.2" height="4.33"/><path class="cls-3" d="M1291.45,957.05v4.33h2.85c.14-1.43.25-2.87.34-4.33Z" transform="translate(2.15 -377)"/><rect class="cls-3" x="1207.14" y="587.69" width="3.2" height="4.33"/><rect class="cls-3" x="1213.13" y="587.69" width="3.2" height="4.33"/><rect class="cls-3" x="1218.98" y="587.69" width="3.2" height="4.33"/><rect class="cls-3" x="1224.53" y="587.69" width="3.2" height="4.33"/><rect class="cls-3" x="1230.19" y="587.69" width="3.2" height="4.33"/><rect class="cls-3" x="1235.9" y="587.69" width="3.2" height="4.33"/><rect class="cls-3" x="1241.89" y="587.69" width="3.2" height="4.33"/><rect class="cls-3" x="1247.74" y="587.69" width="3.2" height="4.33"/><rect class="cls-3" x="1253.29" y="587.69" width="3.2" height="4.33"/><rect class="cls-3" x="1258.95" y="587.69" width="3.2" height="4.33"/><rect class="cls-3" x="1264.84" y="587.69" width="3.2" height="4.33"/><rect class="cls-3" x="1270.82" y="587.69" width="3.2" height="4.33"/><rect class="cls-3" x="1276.68" y="587.69" width="3.2" height="4.33"/><rect class="cls-3" x="1282.22" y="587.69" width="3.2" height="4.33"/><rect class="cls-3" x="1287.88" y="587.69" width="3.2" height="4.33"/><path class="cls-3" d="M1291.45,964.69V969h2c.21-1.42.39-2.86.55-4.32Z" transform="translate(2.15 -377)"/><rect class="cls-3" x="1207.14" y="595.21" width="3.2" height="4.33"/><rect class="cls-3" x="1213.13" y="595.21" width="3.2" height="4.33"/><rect class="cls-3" x="1218.98" y="595.21" width="3.2" height="4.33"/><rect class="cls-3" x="1224.53" y="595.21" width="3.2" height="4.33"/><rect class="cls-3" x="1230.19" y="595.21" width="3.2" height="4.33"/><rect class="cls-3" x="1235.9" y="595.21" width="3.2" height="4.33"/><rect class="cls-3" x="1241.89" y="595.21" width="3.2" height="4.33"/><rect class="cls-3" x="1247.74" y="595.21" width="3.2" height="4.33"/><rect class="cls-3" x="1253.29" y="595.21" width="3.2" height="4.33"/><rect class="cls-3" x="1258.95" y="595.21" width="3.2" height="4.33"/><rect class="cls-3" x="1264.84" y="595.21" width="3.2" height="4.33"/><rect class="cls-3" x="1270.82" y="595.21" width="3.2" height="4.33"/><rect class="cls-3" x="1276.68" y="595.21" width="3.2" height="4.33"/><rect class="cls-3" x="1282.22" y="595.21" width="3.2" height="4.33"/><rect class="cls-3" x="1287.88" y="595.21" width="3.2" height="4.33"/><path class="cls-3" d="M1291.45,972.21v4.32h.72c.27-1.42.52-2.86.76-4.32Z" transform="translate(2.15 -377)"/></g><rect class="cls-3" x="1184.7" y="608.76" width="74.19" height="38.38"/><rect class="cls-3" x="1128.44" y="627.95" width="74.19" height="19.19"/><path class="cls-3" d="M1262.69,991.74v32.4H1276v0a169.13,169.13,0,0,0,12.61-32.38Z" transform="translate(2.15 -377)"/><rect class="cls-4" x="1189.66" y="613.25" width="13.82" height="7.11"/><rect class="cls-4" x="1207.4" y="613.25" width="13.82" height="7.11"/><rect class="cls-4" x="1224.81" y="613.25" width="13.82" height="7.11"/><rect class="cls-4" x="1241.88" y="613.25" width="13.82" height="7.11"/><rect class="cls-8" x="1258.12" y="608.76" width="7.12" height="38.71"/><rect class="cls-5" x="1150.45" y="540.28" width="0.39" height="3"/><rect class="cls-5" x="1164.3" y="540.28" width="0.39" height="3"/><rect class="cls-4" x="1091.55" y="613.98" width="50.94" height="32.85"/><rect class="cls-3" x="1091.55" y="609.68" width="50.94" height="10.68"/><rect class="cls-3" x="1095.02" y="623.52" width="2.62" height="3.54"/><rect class="cls-3" x="1099.91" y="623.52" width="2.62" height="3.54"/><rect class="cls-3" x="1104.69" y="623.52" width="2.62" height="3.54"/><rect class="cls-3" x="1109.23" y="623.52" width="2.62" height="3.54"/><rect class="cls-3" x="1113.85" y="623.52" width="2.62" height="3.54"/><rect class="cls-3" x="1118.52" y="623.52" width="2.62" height="3.54"/><rect class="cls-3" x="1123.41" y="623.52" width="2.62" height="3.54"/><rect class="cls-3" x="1128.2" y="623.52" width="2.62" height="3.54"/><rect class="cls-3" x="1132.73" y="623.52" width="2.62" height="3.54"/><rect class="cls-3" x="1137.35" y="623.52" width="2.62" height="3.54"/><rect class="cls-3" x="1095.02" y="629.76" width="2.62" height="3.54"/><rect class="cls-3" x="1099.91" y="629.76" width="2.62" height="3.54"/><rect class="cls-3" x="1104.69" y="629.76" width="2.62" height="3.54"/><rect class="cls-3" x="1109.23" y="629.76" width="2.62" height="3.54"/><rect class="cls-3" x="1113.85" y="629.76" width="2.62" height="3.54"/><rect class="cls-3" x="1118.52" y="629.76" width="2.62" height="3.54"/><rect class="cls-3" x="1123.41" y="629.76" width="2.62" height="3.54"/><rect class="cls-3" x="1128.2" y="629.76" width="2.62" height="3.54"/><rect class="cls-3" x="1132.73" y="629.76" width="2.62" height="3.54"/><rect class="cls-3" x="1137.35" y="629.76" width="2.62" height="3.54"/><rect class="cls-3" x="1095.02" y="635.91" width="2.62" height="3.54"/><rect class="cls-3" x="1099.91" y="635.91" width="2.62" height="3.54"/><rect class="cls-3" x="1104.69" y="635.91" width="2.62" height="3.54"/><rect class="cls-3" x="1109.23" y="635.91" width="2.62" height="3.54"/><rect class="cls-3" x="1113.85" y="635.91" width="2.62" height="3.54"/><rect class="cls-3" x="1118.52" y="635.91" width="2.62" height="3.54"/><rect class="cls-3" x="1123.41" y="635.91" width="2.62" height="3.54"/><rect class="cls-3" x="1128.2" y="635.91" width="2.62" height="3.54"/><rect class="cls-3" x="1132.73" y="635.91" width="2.62" height="3.54"/><rect class="cls-3" x="1137.35" y="635.91" width="2.62" height="3.54"/><rect class="cls-8" x="1095.43" y="612.68" width="2.2" height="3.65"/><rect class="cls-8" x="1117.26" y="612.68" width="2.2" height="3.65"/><rect class="cls-8" x="1134.62" y="612.68" width="2.2" height="3.65"/><rect class="cls-4" x="1037.41" y="613.98" width="50.94" height="32.85"/><rect class="cls-3" x="1037.41" y="609.68" width="50.94" height="10.68"/><rect class="cls-3" x="1040.88" y="623.52" width="2.62" height="3.54"/><rect class="cls-3" x="1045.77" y="623.52" width="2.62" height="3.54"/><rect class="cls-3" x="1050.55" y="623.52" width="2.62" height="3.54"/><rect class="cls-3" x="1055.09" y="623.52" width="2.62" height="3.54"/><rect class="cls-3" x="1059.71" y="623.52" width="2.62" height="3.54"/><rect class="cls-3" x="1064.38" y="623.52" width="2.62" height="3.54"/><rect class="cls-3" x="1069.28" y="623.52" width="2.62" height="3.54"/><rect class="cls-3" x="1074.06" y="623.52" width="2.62" height="3.54"/><rect class="cls-3" x="1078.59" y="623.52" width="2.62" height="3.54"/><rect class="cls-3" x="1083.21" y="623.52" width="2.62" height="3.54"/><rect class="cls-3" x="1040.88" y="629.76" width="2.62" height="3.54"/><rect class="cls-3" x="1045.77" y="629.76" width="2.62" height="3.54"/><rect class="cls-3" x="1050.55" y="629.76" width="2.62" height="3.54"/><rect class="cls-3" x="1055.09" y="629.76" width="2.62" height="3.54"/><rect class="cls-3" x="1059.71" y="629.76" width="2.62" height="3.54"/><rect class="cls-3" x="1064.38" y="629.76" width="2.62" height="3.54"/><rect class="cls-3" x="1069.28" y="629.76" width="2.62" height="3.54"/><rect class="cls-3" x="1074.06" y="629.76" width="2.62" height="3.54"/><rect class="cls-3" x="1078.59" y="629.76" width="2.62" height="3.54"/><rect class="cls-3" x="1083.21" y="629.76" width="2.62" height="3.54"/><rect class="cls-3" x="1040.88" y="635.91" width="2.62" height="3.54"/><rect class="cls-3" x="1045.77" y="635.91" width="2.62" height="3.54"/><rect class="cls-3" x="1050.55" y="635.91" width="2.62" height="3.54"/><rect class="cls-3" x="1055.09" y="635.91" width="2.62" height="3.54"/><rect class="cls-3" x="1059.71" y="635.91" width="2.62" height="3.54"/><rect class="cls-3" x="1064.38" y="635.91" width="2.62" height="3.54"/><rect class="cls-3" x="1069.28" y="635.91" width="2.62" height="3.54"/><rect class="cls-3" x="1074.06" y="635.91" width="2.62" height="3.54"/><rect class="cls-3" x="1078.59" y="635.91" width="2.62" height="3.54"/><rect class="cls-3" x="1083.21" y="635.91" width="2.62" height="3.54"/><rect class="cls-8" x="1041.29" y="612.68" width="2.2" height="3.65"/><rect class="cls-8" x="1063.12" y="612.68" width="2.2" height="3.65"/><rect class="cls-8" x="1080.48" y="612.68" width="2.2" height="3.65"/><rect class="cls-4" x="983.15" y="613.98" width="50.94" height="32.85"/><rect class="cls-3" x="983.15" y="609.68" width="50.94" height="10.68"/><rect class="cls-3" x="986.62" y="623.52" width="2.62" height="3.54"/><rect class="cls-3" x="991.51" y="623.52" width="2.62" height="3.54"/><rect class="cls-3" x="996.29" y="623.52" width="2.62" height="3.54"/><rect class="cls-3" x="1000.83" y="623.52" width="2.62" height="3.54"/><rect class="cls-3" x="1005.45" y="623.52" width="2.62" height="3.54"/><rect class="cls-3" x="1010.12" y="623.52" width="2.62" height="3.54"/><rect class="cls-3" x="1015.02" y="623.52" width="2.62" height="3.54"/><rect class="cls-3" x="1019.8" y="623.52" width="2.62" height="3.54"/><rect class="cls-3" x="1024.33" y="623.52" width="2.62" height="3.54"/><rect class="cls-3" x="1028.96" y="623.52" width="2.62" height="3.54"/><rect class="cls-3" x="986.62" y="629.76" width="2.62" height="3.54"/><rect class="cls-3" x="991.51" y="629.76" width="2.62" height="3.54"/><rect class="cls-3" x="996.29" y="629.76" width="2.62" height="3.54"/><rect class="cls-3" x="1000.83" y="629.76" width="2.62" height="3.54"/><rect class="cls-3" x="1005.45" y="629.76" width="2.62" height="3.54"/><rect class="cls-3" x="1010.12" y="629.76" width="2.62" height="3.54"/><rect class="cls-3" x="1015.02" y="629.76" width="2.62" height="3.54"/><rect class="cls-3" x="1019.8" y="629.76" width="2.62" height="3.54"/><rect class="cls-3" x="1024.33" y="629.76" width="2.62" height="3.54"/><rect class="cls-3" x="1028.96" y="629.76" width="2.62" height="3.54"/><rect class="cls-3" x="986.62" y="635.91" width="2.62" height="3.54"/><rect class="cls-3" x="991.51" y="635.91" width="2.62" height="3.54"/><rect class="cls-3" x="996.29" y="635.91" width="2.62" height="3.54"/><rect class="cls-3" x="1000.83" y="635.91" width="2.62" height="3.54"/><rect class="cls-3" x="1005.45" y="635.91" width="2.62" height="3.54"/><rect class="cls-3" x="1010.12" y="635.91" width="2.62" height="3.54"/><rect class="cls-3" x="1015.02" y="635.91" width="2.62" height="3.54"/><rect class="cls-3" x="1019.8" y="635.91" width="2.62" height="3.54"/><rect class="cls-3" x="1024.33" y="635.91" width="2.62" height="3.54"/><rect class="cls-3" x="1028.96" y="635.91" width="2.62" height="3.54"/><rect class="cls-8" x="987.03" y="612.68" width="2.2" height="3.65"/><rect class="cls-8" x="1008.86" y="612.68" width="2.2" height="3.65"/><rect class="cls-8" x="1026.22" y="612.68" width="2.2" height="3.65"/></g><circle class="cls-3" cx="307.62" cy="816.1" r="5.1" transform="translate(-545.07 612.03) rotate(-80.78)"/><path class="cls-9" d="M465.49,1022H117.36c.11-.39.24-.77.38-1.15,3.43-9,15.82-16.07,15.82-16.07,39.06-16.19,76.09,14.19,103.4-5.57s64.53-19.2,79.27-13.32,52.26,5.72,74.55-8.11c16-10,46.78-11.18,62.76-11.08a50.48,50.48,0,0,1,10.64,13.52Z" transform="translate(2.15 -377)"/><path class="cls-3" d="M133.3,1020.94l-15.56-.05L91,1020.8l-76.06-.25a1.91,1.91,0,0,1-.13-.23,1.14,1.14,0,0,1-.09-.16A148,148,0,0,1,3,990.12a142.54,142.54,0,0,1-5.08-32.28,101,101,0,0,1,40.8,7.39c26.84,11.18,18.05,27.51,30.61,27.51s13.39-7,26-2.23,11,14.8,18.87,14.17C121.84,1004.07,132.81,1011,133.3,1020.94Z" transform="translate(2.15 -377)"/><path class="cls-6" d="M142.62,1021.56H12.86c-.3-.72-.64-1.53-1-2.44A191.83,191.83,0,0,1,1,980.12c6.44.47,27.05,3,40.09,16.51,15.62,16.16,35.58,17.54,50.76,15.24a54.43,54.43,0,0,1,6-.54C114.32,1010.69,139.94,1015.05,142.62,1021.56Z" transform="translate(2.15 -377)"/><path class="cls-10" d="M115.15,843.92a28,28,0,0,0-8.84,7.74,38.81,38.81,0,0,0-4.67,7.83c-1.84,4.08-.9,6.49-3.65,10.86C90.6,882.77,73.48,887,55.68,887.19c-5.7.56-17.88,1.83-24,4.2h0a81.54,81.54,0,0,0-9,4.2l-.28.15c-2,1.07-3.77,2.14-5.39,3.16A87.46,87.46,0,0,0,9.78,904a101.21,101.21,0,0,1,6-9.88c.23-.33.46-.67.7-1a110.16,110.16,0,0,1,11.22-13.45C60.36,846.18,90.46,841.64,115.15,843.92Z" transform="translate(2.15 -377)"/><path class="cls-3" d="M334.1,830.9h-1.81l0-.14.54-4.81a.31.31,0,0,1,.31-.27h.06a.42.42,0,0,1,.26.12.45.45,0,0,1,.16.31Z" transform="translate(2.15 -377)"/><path class="cls-4" d="M332.47,829.81h-.07l.45-3.86a.31.31,0,0,1,.31-.27h.06l0,0a.48.48,0,0,1,.13.32l0,2.78A1,1,0,0,1,332.47,829.81Z" transform="translate(2.15 -377)"/><rect class="cls-3" x="333.92" y="475.29" width="3.48" height="153.45"/><rect class="cls-4" x="333.92" y="475.29" width="1.6" height="153.45"/><rect class="cls-3" x="330.12" y="604.26" width="11.07" height="40.6"/><rect class="cls-4" x="330.12" y="604.26" width="6.6" height="40.6"/><path class="cls-3" d="M339.56,833.22c0,1.9-2.85,3.43-6.36,3.43-.27,0-.54,0-.8,0-3.13-.21-5.56-1.65-5.56-3.4s2.43-3.2,5.56-3.41l.8,0C336.71,829.79,339.56,831.32,339.56,833.22Z" transform="translate(2.15 -377)"/><path class="cls-4" d="M336.26,833.22c0,1.53-1.59,2.84-3.86,3.4-3.13-.21-5.56-1.65-5.56-3.4s2.43-3.2,5.56-3.41C334.67,830.38,336.26,831.69,336.26,833.22Z" transform="translate(2.15 -377)"/><polygon class="cls-4" points="341.18 478.32 330.11 478.32 326.21 459.53 344.48 459.53 341.18 478.32"/><rect class="cls-3" x="325.22" y="458.11" width="20.25" height="1.8"/><rect class="cls-4" x="325.22" y="458.11" width="12.73" height="1.8"/><path class="cls-3" d="M329.79,981.26h7.07l-1-3.14a.68.68,0,0,0-.64-.47h-3.31a.88.88,0,0,0-.82.55Z" transform="translate(2.15 -377)"/><polygon class="cls-6" points="327.51 460.44 343.12 460.44 340.07 477.33 331.11 477.33 327.51 460.44"/><path class="cls-11" d="M327.26,833.42s1.18-2.6,3.53-2.52c0,0-1.49,1.33-1.35,2.52S327.26,833.42,327.26,833.42Z" transform="translate(2.15 -377)"/><polygon class="cls-3" points="344.18 458.11 326.51 458.11 327.96 456.05 342.8 456.05 344.18 458.11"/><polygon class="cls-4" points="339.83 458.11 326.51 458.11 327.96 456.05 338.45 456.05 339.83 458.11"/><polygon class="cls-9" points="328.55 461.04 332.13 461.04 333.17 476.81 332.13 476.81 328.55 461.04"/><path class="cls-3" d="M106.83,894.07h-1.2V894l.36-3.22a.2.2,0,0,1,.2-.18h0a.37.37,0,0,1,.18.08.28.28,0,0,1,.1.21Z" transform="translate(2.15 -377)"/><path class="cls-4" d="M105.74,893.34h0l.3-2.58a.2.2,0,0,1,.2-.18h0l0,0a.29.29,0,0,1,.09.22l0,1.85A.66.66,0,0,1,105.74,893.34Z" transform="translate(2.15 -377)"/><rect class="cls-12" x="107.42" y="531.39" width="2.33" height="102.69"/><rect class="cls-4" x="107.42" y="531.39" width="1.07" height="102.69"/><rect class="cls-12" x="104.88" y="617.69" width="7.41" height="27.17"/><rect class="cls-4" x="104.88" y="617.69" width="4.42" height="27.17"/><path class="cls-12" d="M110.49,895.62c0,1.27-1.91,2.3-4.26,2.3l-.53,0c-2.1-.14-3.73-1.11-3.73-2.28s1.63-2.14,3.73-2.28l.53,0C108.58,893.32,110.49,894.35,110.49,895.62Z" transform="translate(2.15 -377)"/><path class="cls-4" d="M108.28,895.62c0,1-1.06,1.9-2.58,2.28-2.1-.14-3.73-1.11-3.73-2.28s1.63-2.14,3.73-2.28C107.22,893.72,108.28,894.6,108.28,895.62Z" transform="translate(2.15 -377)"/><polygon class="cls-4" points="112.28 533.41 104.87 533.41 102.26 520.84 114.49 520.84 112.28 533.41"/><rect class="cls-12" x="101.6" y="519.89" width="13.55" height="1.21"/><rect class="cls-4" x="101.6" y="519.89" width="8.52" height="1.21"/><path class="cls-12" d="M104,994.69h4.73l-.69-2.1a.45.45,0,0,0-.43-.31h-2.22a.58.58,0,0,0-.55.37Z" transform="translate(2.15 -377)"/><polygon class="cls-6" points="103.14 521.45 113.58 521.45 111.54 532.75 105.54 532.75 103.14 521.45"/><path class="cls-12" d="M102.25,895.76s.8-1.74,2.37-1.69c0,0-1,.89-.91,1.69S102.25,895.76,102.25,895.76Z" transform="translate(2.15 -377)"/><polygon class="cls-12" points="114.29 519.89 102.47 519.89 103.44 518.51 113.37 518.51 114.29 519.89"/><polygon class="cls-4" points="111.38 519.89 102.47 519.89 103.44 518.51 110.46 518.51 111.38 519.89"/><polygon class="cls-9" points="103.83 521.84 106.22 521.84 106.92 532.4 106.22 532.4 103.83 521.84"/><path class="cls-3" d="M468.39,1022l-95.25-.3c1-2.7,4.93-11.48,14.36-15.11a22.4,22.4,0,0,1,4-1.14q.73-.15,1.5-.24c.59-.08,1.2-.14,1.82-.18s1.27,0,1.93,0c16.78.13,22-31.5,61.76-33.1a47.78,47.78,0,0,1,5.7,8.39C469.6,990.44,471.84,1003.74,468.39,1022Z" transform="translate(2.15 -377)"/><path class="cls-3" d="M396.19,1011.34S386,996.58,379.33,998,396.19,1011.34,396.19,1011.34Z" transform="translate(2.15 -377)"/><path class="cls-3" d="M394.68,1008.56S395.6,996,392.14,997,394.68,1008.56,394.68,1008.56Z" transform="translate(2.15 -377)"/><path class="cls-9" d="M451.16,1013.94s5.29-25.52-4.84-29.91S451.16,1013.94,451.16,1013.94Z" transform="translate(2.15 -377)"/><path class="cls-9" d="M447.5,1011.17s-5.14-14.51-12.86-17.71S435.7,1003.6,447.5,1011.17Z" transform="translate(2.15 -377)"/><path class="cls-9" d="M454.21,1005.71s5.33-7.77,4.13-12.75S453.7,997.15,454.21,1005.71Z" transform="translate(2.15 -377)"/><path class="cls-9" d="M468.5,1020.89c0,.1,0,.19-.05.28H396.76s9.6-15.15,22.68-6.84a17.77,17.77,0,0,0,9.53,2.83,11.56,11.56,0,0,0,7.42-2.74c19.76-16.67,27.42-15.85,33.29-15.5,0,0,0,.05,0,.08A74.42,74.42,0,0,1,468.5,1020.89Z" transform="translate(2.15 -377)"/><path class="cls-9" d="M850.08,1021.44v0H453c.13-.6.27-1.19.44-1.77,3.9-13.91,18-24.84,18-24.84,44.55-25,86.79,21.93,117.93-8.6s73.61-29.68,90.42-20.59,59.61,8.84,85-12.53c18.29-15.37,53.35-17.27,71.58-17.12,2.73,3.4,110,29.85,133.45,52,11.38,10.75,5.78,35-8.1,35Z" transform="translate(2.15 -377)"/><path class="cls-3" d="M545.39,1022l-95.25-.29c1-2.71,4.93-11.48,14.36-15.12a23.28,23.28,0,0,1,4-1.14q.73-.13,1.5-.24c.59-.08,1.2-.14,1.82-.17s1.27-.06,1.93,0c16.78.13,22-31.51,61.76-33.11a47.86,47.86,0,0,1,5.7,8.4C546.6,990.45,548.84,1003.75,545.39,1022Z" transform="translate(2.15 -377)"/><path class="cls-3" d="M473.19,1011.35S463,996.59,456.33,998,473.19,1011.35,473.19,1011.35Z" transform="translate(2.15 -377)"/><path class="cls-3" d="M471.68,1008.57S472.6,996,469.14,997,471.68,1008.57,471.68,1008.57Z" transform="translate(2.15 -377)"/><path class="cls-9" d="M522.16,1012.77s5.29-25.52-4.84-29.92S522.16,1012.77,522.16,1012.77Z" transform="translate(2.15 -377)"/><path class="cls-9" d="M518.5,1010s-5.14-14.51-12.86-17.7S506.7,1002.43,518.5,1010Z" transform="translate(2.15 -377)"/><path class="cls-9" d="M525.21,1004.54s5.33-7.78,4.13-12.75S524.7,996,525.21,1004.54Z" transform="translate(2.15 -377)"/><path class="cls-9" d="M539.5,1019.72c0,.09,0,.19,0,.28H467.76s9.6-15.15,22.68-6.84A17.75,17.75,0,0,0,500,1016a11.5,11.5,0,0,0,7.42-2.73c19.76-16.68,27.42-15.86,33.29-15.5,0,0,0,0,0,.07A74.48,74.48,0,0,1,539.5,1019.72Z" transform="translate(2.15 -377)"/><path class="cls-3" d="M903.79,1025l95.25-.3c-1-2.7-4.93-11.48-14.36-15.11a22.4,22.4,0,0,0-4-1.14q-.74-.15-1.5-.24c-.59-.08-1.19-.14-1.82-.18s-1.27,0-1.93,0c-16.77.13-22-31.5-61.76-33.1a47.78,47.78,0,0,0-5.7,8.39C902.58,993.44,900.35,1006.74,903.79,1025Z" transform="translate(2.15 -377)"/><path class="cls-3" d="M976,1014.34s10.2-14.76,16.86-13.32S976,1014.34,976,1014.34Z" transform="translate(2.15 -377)"/><path class="cls-3" d="M977.51,1011.56S976.58,999,980,1000,977.51,1011.56,977.51,1011.56Z" transform="translate(2.15 -377)"/><path class="cls-9" d="M921,1016.94s-5.29-25.52,4.84-29.91S921,1016.94,921,1016.94Z" transform="translate(2.15 -377)"/><path class="cls-9" d="M924.68,1014.17s5.14-14.51,12.86-17.71S936.48,1006.6,924.68,1014.17Z" transform="translate(2.15 -377)"/><path class="cls-9" d="M918,1008.71s-5.33-7.77-4.13-12.75S918.48,1000.15,918,1008.71Z" transform="translate(2.15 -377)"/><path class="cls-9" d="M903.68,1023.89c0,.1,0,.19.05.28h71.69s-9.6-15.15-22.68-6.84a17.74,17.74,0,0,1-9.52,2.83,11.52,11.52,0,0,1-7.42-2.74c-19.77-16.67-27.43-15.85-33.3-15.5,0,0,0,.05,0,.08A74.42,74.42,0,0,0,903.68,1023.89Z" transform="translate(2.15 -377)"/><path class="cls-9" d="M1281.8,1024.26H1046.24a7.92,7.92,0,0,1,.26-.78c2.31-6.08,10.7-10.87,10.7-10.87,26.43-11,51.49,9.6,70-3.77s43.67-13,53.64-9,35.36,3.87,50.45-5.49c10.85-6.73,31.65-7.56,42.46-7.5a34.36,34.36,0,0,1,7.2,9.15Z" transform="translate(2.15 -377)"/><path class="cls-3" d="M1283.76,1024.24l-64.45-.2c.68-1.83,3.34-7.77,9.72-10.23a16.13,16.13,0,0,1,2.68-.77c.33-.06.67-.12,1-.16a12.2,12.2,0,0,1,1.23-.12c.42,0,.86,0,1.31,0,11.34.09,14.86-21.31,41.78-22.4a33.37,33.37,0,0,1,3.86,5.68C1284.58,1002.89,1286.09,1011.89,1283.76,1024.24Z" transform="translate(2.15 -377)"/><path class="cls-3" d="M1234.91,1017s-6.91-10-11.41-9S1234.91,1017,1234.91,1017Z" transform="translate(2.15 -377)"/><path class="cls-3" d="M1233.88,1015.15s.63-8.51-1.72-7.83S1233.88,1015.15,1233.88,1015.15Z" transform="translate(2.15 -377)"/><path class="cls-9" d="M1272.1,1018.79s3.58-17.27-3.28-20.24S1272.1,1018.79,1272.1,1018.79Z" transform="translate(2.15 -377)"/><path class="cls-9" d="M1269.62,1016.91s-3.47-9.81-8.7-12S1261.64,1011.8,1269.62,1016.91Z" transform="translate(2.15 -377)"/><path class="cls-9" d="M1274.17,1013.23s3.6-5.27,2.79-8.63S1273.82,1007.43,1274.17,1013.23Z" transform="translate(2.15 -377)"/><path class="cls-9" d="M1283.83,1023.5l0,.19h-48.51s6.5-10.26,15.35-4.63a12.07,12.07,0,0,0,6.44,1.91,7.81,7.81,0,0,0,5-1.85c13.38-11.29,18.56-10.73,22.53-10.49,0,0,0,0,0,0A50.41,50.41,0,0,1,1283.83,1023.5Z" transform="translate(2.15 -377)"/><path class="cls-3" d="M369.71,1022.14s-2.56-5.77-14.26-6-13.46,6.12-22,3.48a21.79,21.79,0,0,0-15.95,1.6Z" transform="translate(2.15 -377)"/><polygon class="cls-13" points="323.79 592.25 150.21 592.25 142.19 551.46 315.45 551.46 323.79 592.25"/><polygon class="cls-14" points="326.75 592.25 153.18 592.25 145.16 551.46 318.42 551.46 326.75 592.25"/><path class="cls-13" d="M150.21,592.25h56.94a0,0,0,0,1,0,0v5a0,0,0,0,1,0,0H150.38a.17.17,0,0,1-.17-.17v-4.83A0,0,0,0,1,150.21,592.25Z"/><path class="cls-13" d="M354.06,974.25H201.41a2.5,2.5,0,0,1-2.5-2.5h0a2.5,2.5,0,0,1,2.5-2.5H354.06a2.5,2.5,0,0,1,2.5,2.5h0A2.5,2.5,0,0,1,354.06,974.25Z" transform="translate(2.15 -377)"/><path class="cls-15" d="M158.42,974.25l-3,11.68v0l-8.79,34.61a1,1,0,0,1-1,.77,1.42,1.42,0,0,1-1.39-1.69l7.84-40.38,1-5Z" transform="translate(2.15 -377)"/><path class="cls-13" d="M155.45,985.93c.29-6-3.33-6.67-3.33-6.67l1-5h5.32Z" transform="translate(2.15 -377)"/><path class="cls-15" d="M196.08,974.25l-3,11.68v0l-8.79,34.61a1,1,0,0,1-1,.77,1.42,1.42,0,0,1-1.39-1.69l7.85-40.38,1-5Z" transform="translate(2.15 -377)"/><path class="cls-13" d="M193.1,985.93c.29-6-3.32-6.67-3.32-6.67l1-5h5.33Z" transform="translate(2.15 -377)"/><path class="cls-15" d="M342.17,974.25l3,11.68v0l8.8,34.61a1,1,0,0,0,1,.77,1.43,1.43,0,0,0,1.4-1.69l-7.85-40.38-1-5Z" transform="translate(2.15 -377)"/><path class="cls-13" d="M345.14,985.93c-.28-6,3.33-6.67,3.33-6.67l-1-5h-5.32Z" transform="translate(2.15 -377)"/><path class="cls-15" d="M304.52,974.25l3,11.68v0l8.8,34.61a1,1,0,0,0,1,.77,1.42,1.42,0,0,0,1.39-1.69l-7.84-40.38-1-5Z" transform="translate(2.15 -377)"/><path class="cls-13" d="M307.49,985.93c-.29-6,3.33-6.67,3.33-6.67l-1-5h-5.32Z" transform="translate(2.15 -377)"/><path class="cls-3" d="M197.22,1021.16h-8.31c-.45-.37.3-1.23,1.09-1.29a4.86,4.86,0,0,1,1.27.15c.12-1.52.77-8.35,3.23-8.08,2.77.31,0,3-.78,4.61a37.82,37.82,0,0,0-1.47,3.69l.69.14c.37-1.13,1.74-4.92,3.47-4.7,2,.26,1.22,1.78-.22,2.68-1.06.66-2.37,1.61-3,2.06a7.88,7.88,0,0,0,1.62.13A3.55,3.55,0,0,1,197.22,1021.16Z" transform="translate(2.15 -377)"/><path class="cls-3" d="M209.5,831.62s3.78-6.36,12.83-5.65c0,0,13.14-10.61,27.15-1.42,0,0,14.89-2.27,25.92,2,7.35,2.84,9.78,5.81,9.78,5.81Z" transform="translate(2.15 -377)"/><path class="cls-3" d="M265.79,849.08a7.82,7.82,0,0,1,7.45-3.45s7.63-6.47,15.77-.86c0,0,8.65-1.39,15.06,1.2,4.27,1.73,5.68,3.54,5.68,3.54Z" transform="translate(2.15 -377)"/><path class="cls-3" d="M347.13,877.52s2.38-5.24,8.06-4.66c0,0,8.25-8.73,17.05-1.16,0,0,9.35-1.88,16.27,1.62,4.62,2.33,6.15,4.78,6.15,4.78Z" transform="translate(2.15 -377)"/><path class="cls-6" d="M34,996.12s8.93-9.77,14.32-8.59-12.63,9.09-12.63,9.09Z" transform="translate(2.15 -377)"/><path class="cls-6" d="M38.51,997.47s10.45-4.16,13.14-1.8S39,998.48,39,998.48Z" transform="translate(2.15 -377)"/><path class="cls-6" d="M29.31,992.64c.11-.45,5.61-10.55,8.42-10.1s-6.18,10.32-6.18,10.32Z" transform="translate(2.15 -377)"/><path class="cls-16" d="M259.63,935.09a12.49,12.49,0,0,1-2.32-3.42A90.29,90.29,0,0,1,252.57,921c-.49-1.37-.74-2.29-.61-2.38a13.68,13.68,0,0,0,1.3-2.16c.72-1.31,1.64-3.07,2.53-4.85,1.77-3.51,3.45-7.13,3.4-7.72.45,1.41,7.93,25.11,8.11,28.38S261.88,936.77,259.63,935.09Z" transform="translate(2.15 -377)"/><path class="cls-17" d="M257.31,931.68h0A90.29,90.29,0,0,1,252.57,921c.19-1.48.42-3.08.69-4.54.55-2.91,1.28-5.26,2.17-5,.13,0,1.42-.07,1.53,0,1.78,1.4,0,10.57,1.35,13.17C259.31,926.57,257.31,931.68,257.31,931.68Z" transform="translate(2.15 -377)"/><path class="cls-16" d="M259.19,903.91s0,0,0-.06A.14.14,0,0,1,259.19,903.91Z" transform="translate(2.15 -377)"/><path class="cls-12" d="M207.26,889.34a54.82,54.82,0,0,1,8.85,6.95c4.64,4.34,11.64,14,14.72,16s19.64,3.36,19.64,3.36v3.65s-14.87,4.91-24.69,2.94-18.23-9.39-18.23-9.39Z" transform="translate(2.15 -377)"/><path class="cls-18" d="M283.58,1003c.16-.51.35-1.16.55-1.87.37-4.12,1.29-19.71,2.66-25.78,4.76,3.07,10.6.21,12.12.21-2,5.92-7.23,21.87-8.52,25.2-.52,2.22-1.23,5.84-.83,7.73a21.92,21.92,0,0,0,3.29,8.23c.19.27-7-.84-9.93-2.82s-5.19-3.89-3.88-5.66a8.85,8.85,0,0,1,1.6-1.69A8,8,0,0,0,283.58,1003Z" transform="translate(2.15 -377)"/><path class="cls-16" d="M282.87,1014.57c3.2,1.49,1.94,1.76,6.08,4.4s6.44,2.15,7,1.68-1.23-2.11-3.06-4l0,0A13.79,13.79,0,0,1,286,1014c-2.63-2-4.76-5-6.57-6.36a8.72,8.72,0,0,0-1.39,1.81C277.06,1011.42,279.68,1013.07,282.87,1014.57Z" transform="translate(2.15 -377)"/><path class="cls-19" d="M271.94,1005.53c.07-.52.13-1.2.2-1.94-.41-4.11-2.42-19.6-2.21-25.82,5.25,2.13,10.46-1.77,11.95-2-.81,6.17-3,22.83-3.67,26.34-.09,2.28-.11,6,.63,7.75a22,22,0,0,0,4.77,7.47c.24.23-7,.49-10.28-.91s-5.82-2.86-4.87-4.84a8.87,8.87,0,0,1,1.26-2A8,8,0,0,0,271.94,1005.53Z" transform="translate(2.15 -377)"/><path class="cls-16" d="M273.41,1017c3.42.87,2.23,1.37,6.79,3.19s6.73.91,7.2.34-1.6-1.84-3.74-3.32l-.05,0a13.82,13.82,0,0,1-7.19-1.37c-3-1.49-5.61-4-7.64-5a8.5,8.5,0,0,0-1,2C267.11,1015,270,1016.16,273.41,1017Z" transform="translate(2.15 -377)"/><path class="cls-12" d="M251.4,944.68s4.49-5.85,7.58-5,23.86,4.82,34.5,16.09c9.54,10.09,9.26,28.89,9.26,28.89s-14.31,3.93-23.57,2.24-10.56.38-14.86,1c-3.07.47-5.47-15.89-7.58-17.3-3.3-2.2-28.89-1.68-29.45-12.9S251.4,944.68,251.4,944.68Z" transform="translate(2.15 -377)"/><path class="cls-6" d="M247.67,863.16a4.49,4.49,0,0,0-4-5.32c-2.17-.39-5.33.59-5.64,3.27s1.51,6,4.2,6.35A4.89,4.89,0,0,0,247.67,863.16Z" transform="translate(2.15 -377)"/><path class="cls-6" d="M241.31,882.07s12.87-9.18,4.82-18.29a6.78,6.78,0,0,0-2.9-1.92c-3.06-1.05-9.93-2.81-13.91.69-4.29,3.77-6.16,6.79-3.42,11S241.31,882.07,241.31,882.07Z" transform="translate(2.15 -377)"/><path class="cls-19" d="M230.8,880.76s0,1.75,0,4.12c0,1.16,0,2.48.1,3.8,0,1-.12,1.84,0,2.76l2.65,14,11.07-14s-2-2.06-3.84-12.25a.81.81,0,0,0,0-.16Z" transform="translate(2.15 -377)"/><path class="cls-16" d="M259.47,943.13c.73,1.34-3,4.77-4.91,5.75-2.42,1.26-2.54,1.71-17.07,2.64l-4.44.27c-9.37.51-14.41.51-14.41.51s7.13-10.57,4.24-36.56a20.63,20.63,0,0,1,2.85-11.64c2-2.91,2.13-6.51,2.62-10,.14-1-.61-1.12-.35-2.07,0,0,2.53-1,2.8-1.07,1.63,1.14,3.88,3.45,8.79,3.4A4.54,4.54,0,0,0,244.3,891a40.41,40.41,0,0,1,3.84,1.53,16.76,16.76,0,0,1,11,11.32s-3.37,23.85-3.65,27.22C255.33,933.32,257.71,939.91,259.47,943.13Z" transform="translate(2.15 -377)"/><path class="cls-20" d="M230.78,884.88c0,1.16,0,2.48.1,3.8,10.66-2.8,10-8.51,9.84-9.57a.81.81,0,0,0,0-.16S235,882.06,230.78,884.88Z" transform="translate(2.15 -377)"/><path class="cls-19" d="M228.51,886s11.38,1.67,12.32-5.43,3-11.67-4.2-13-9,1.16-9.89,3.45S225.58,885.35,228.51,886Z" transform="translate(2.15 -377)"/><path class="cls-6" d="M229.41,865.64s-.84,13.64,13.23,14C242.64,879.6,244.42,861.43,229.41,865.64Z" transform="translate(2.15 -377)"/><path class="cls-6" d="M232.36,867.13s-4.42,2-6.16,5.94C226.2,873.07,222.33,866.13,232.36,867.13Z" transform="translate(2.15 -377)"/><path class="cls-17" d="M236.54,945.28c3.74,12-18.46,7.16-18.46,7.16s1-4.28.29-12.6c-.27-3.39-4-8-3.25-12.41.83-4.57,10.91-7.78,13.66-13.19C226.34,928,240.37,936.78,236.54,945.28Z" transform="translate(2.15 -377)"/><path class="cls-21" d="M236.33,945.45s5-.35,6.87.21,3.57,2.1,3.79,2.94-3.86,1.34-4.84.91-2.74.43-3.93.08a10.33,10.33,0,0,1-2.53-1.34Z" transform="translate(2.15 -377)"/><path class="cls-16" d="M230.8,891s-10.79,3.53-15.06,9.79c-3.28,4.8-5,26.63-4.56,30.16.38,3.37,4.76,9.86,23.49,18.06.27.12,3.41-.77,2.57-3.65L223,928.92l8.64-21.65S237.87,897.86,230.8,891Z" transform="translate(2.15 -377)"/><path class="cls-22" d="M227.64,881s.21,1.2.74,1.37a3.91,3.91,0,0,0,2.18.25,1.69,1.69,0,0,0,1.09-.79A9.24,9.24,0,0,0,227.64,881Z" transform="translate(2.15 -377)"/><path class="cls-17" d="M240.41,1009.72s-.84,11.36,1.3,11.53c.29,0,10.89.11,10.89.11l13.67.11a4.68,4.68,0,0,0-4.16-4.06c-3.95-.72-10.54-3.56-12.9-8.8C246.73,1003.09,240.41,1009.72,240.41,1009.72Z" transform="translate(2.15 -377)"/><path class="cls-17" d="M189.6,947.06s-4.72,14.84,1.49,20.06c7.25,6.08,47.13,2.24,46.57,5.75-1,6,2.43,39.86,2.43,39.86s7.95,1.51,13,.11c0,0,5.89-48.67-.85-54.93-9.82-9.15-42.91-15.34-42.91-15.34Z" transform="translate(2.15 -377)"/><path class="cls-23" d="M226.05,1009.72s-.84,11.36,1.3,11.53c.29,0,10.89.11,10.89.11l13.67.11a4.67,4.67,0,0,0-4.15-4.06c-3.95-.72-10.55-3.56-12.91-8.8C232.38,1003.09,226.05,1009.72,226.05,1009.72Z" transform="translate(2.15 -377)"/><path class="cls-16" d="M175.57,947.06s-4.72,14.84,1.5,20.06c7.24,6.08,47.08,2.23,46.56,5.75-1.49,10.19,1.83,40.67,1.83,40.67s8.55.7,13.6-.7c0,0,7.62-46.19-.84-54.93-5.47-5.66-39.18-13.09-39.18-13.09Z" transform="translate(2.15 -377)"/><path class="cls-19" d="M200.76,874.88s-3.18,6.36-1.75,11.76l-4.09,14.5-12.23-14.59a36.51,36.51,0,0,0,5.83-14.95Z" transform="translate(2.15 -377)"/><path class="cls-12" d="M183.41,955.4c-4.16.25-7.73.07-9.91-.6-1.64-.5-2.86-13.94-3.47-28.26-.68-15.85-.61-32.76.49-34.36,2.13-3.07,12.06-5.84,12.34-5.87A19.92,19.92,0,0,0,194,889.85c3.52-.05,4.65-2.16,5-3.39,1.46.15,5.69,1.86,6.88,2.25,6,2,5.82,11.15,5.82,11.15s.58,34.19,2.49,42.23C215.94,949.42,196.71,954.6,183.41,955.4Z" transform="translate(2.15 -377)"/><path class="cls-19" d="M203,878.47s-13.64,4-16-4.18-7.42-12.79,2.71-16.09c8.34-2.72,12,.11,13.48,2.67S208,876.75,203,878.47Z" transform="translate(2.15 -377)"/><path class="cls-6" d="M205.51,869.46s5.35,10,1.17,12.62-16.58,4.46-19.84-8.6c0,0,7.3,2.2,10.3,1.35s4.53-3.09,7.68-2.43C204.82,872.4,205.83,872.08,205.51,869.46Z" transform="translate(2.15 -377)"/><path class="cls-6" d="M184.75,862.19a2.48,2.48,0,0,1,.95-1.61c6.92-5.32,13.52-3,13.52-3-6.35-5.2-17.51-1-18.49,5.37-1.6,10.4,6.11,10.56,6.11,10.56s6.46-4.84,1.34-7.6a7,7,0,0,1-3.12-2.78h0A3.77,3.77,0,0,1,184.75,862.19Z" transform="translate(2.15 -377)"/><path class="cls-6" d="M204.31,874.34a3.21,3.21,0,0,1-2.16,2,3,3,0,0,1-2.68-.82A14,14,0,0,1,204.31,874.34Z" transform="translate(2.15 -377)"/><path class="cls-4" d="M199,945.52l2.76,6.08s-13.93-1.27-16.45.6c-1.18.87-2.13,2.28-1.89,3.2-4.16.25-7.73.07-9.91-.6-1.64-.5-2.86-13.94-3.47-28.26l2-2.76,4.82-4.23a3.3,3.3,0,0,1,5.46,2.1,25.09,25.09,0,0,1,.17,2.76C182.47,931.25,193.71,940.89,199,945.52Z" transform="translate(2.15 -377)"/><path class="cls-19" d="M198.53,945.3a11.1,11.1,0,0,0,3.8.81c3.74.11,5,.12,6.57.92a16.06,16.06,0,0,1,3.23,2.65c.51.54,1.09,2.74.56,3.05-1,.56-6.22-1.3-7.65-1a7.7,7.7,0,0,1-4.19-.51,36,36,0,0,0-3.52-1.24Z" transform="translate(2.15 -377)"/><path class="cls-19" d="M202.64,946.22a30.71,30.71,0,0,0,4-1.09s.65.44.25.81a5.81,5.81,0,0,1-1.53.78Z" transform="translate(2.15 -377)"/><path class="cls-12" d="M171.81,890.89s-7.58,4.35-7.44,23.56-1.12,22.72,2.39,25.25,23.44,10.4,30.74,10.87c0,0,2.62-2.67,1.49-5.57,0,0-22.51-14.75-22.79-15.59s6.83-16.22,7.53-21.27S171.81,890.89,171.81,890.89Z" transform="translate(2.15 -377)"/><path class="cls-19" d="M252.81,946.92s-5.24-.14-6.27.89-2.52,3.46-1.78,4.11,3.74-.93,5.61-.56a5.35,5.35,0,0,0,4.87-1.21C257,948.84,252.81,946.92,252.81,946.92Z" transform="translate(2.15 -377)"/><path class="cls-16" d="M259.82,926.16l-7.15,20.76s.21,2.17,3.29,3.58c0,0,12.27-12.28,11.43-17.32S259.82,926.16,259.82,926.16Z" transform="translate(2.15 -377)"/><rect class="cls-24" x="4.97" y="644.17" width="478.09" height="1.38" rx="0.02"/></svg>