<svg xmlns="http://www.w3.org/2000/svg" viewBox="0 0 1357.8 652.14"><defs><style>.cls-1{fill:#c7e4fa;}.cls-2{fill:#eae4e4;}.cls-11,.cls-2,.cls-3,.cls-4,.cls-5,.cls-6{fill-rule:evenodd;}.cls-3{fill:#f4efef;}.cls-4,.cls-9{fill:#ef5959;}.cls-13,.cls-5{fill:#3b98cc;}.cls-6,.cls-7{fill:#3a7ccc;}.cls-8{fill:#3265bf;}.cls-10,.cls-11{fill:#dd5757;}.cls-12{fill:#c64f4f;}.cls-14{fill:none;}</style></defs><title>aboutus</title><g id="Layer_3" data-name="Layer 3"><rect class="cls-1" x="6.88" y="4.19" width="1348" height="646"/></g><g id="Layer_2" data-name="Layer 2"><path class="cls-2" d="M1307,449.1s-15.39-47.11-59.28-55.94-12.76-72,23.26-100.47,36-38.52,36-38.52Z" transform="translate(49.88 -245.81)"/><path class="cls-3" d="M-43,422.71s48.15,8.89,63.55-47.83,50.49-60.22,81.64-64S162.71,283.1,165.37,253H-43Z" transform="translate(49.88 -245.81)"/><path class="cls-4" d="M179.91,578.14A9.2,9.2,0,1,1,189.1,569,9.2,9.2,0,0,1,179.91,578.14Z" transform="translate(49.88 -245.81)"/><path class="cls-4" d="M1212.53,606.54a9.2,9.2,0,1,1,9.2-9.2A9.19,9.19,0,0,1,1212.53,606.54Z" transform="translate(49.88 -245.81)"/><path class="cls-5" d="M1028.82,449.17a4.48,4.48,0,1,1,4.48-4.48A4.48,4.48,0,0,1,1028.82,449.17Z" transform="translate(49.88 -245.81)"/><path class="cls-5" d="M1038.37,566.43s9.25-8.15,11.81-3.85S1033.15,572.53,1038.37,566.43Z" transform="translate(49.88 -245.81)"/><path class="cls-5" d="M1037.34,581.88s5.71-10.83,9.43-7.37S1034.62,589.48,1037.34,581.88Z" transform="translate(49.88 -245.81)"/><path class="cls-5" d="M1021.47,583.49s5.57-11,9.34-7.63S1018.84,591.21,1021.47,583.49Z" transform="translate(49.88 -245.81)"/><path class="cls-5" d="M1044.42,553.76s5.94-10.5,9.2-7.79S1041.44,561,1044.42,553.76Z" transform="translate(49.88 -245.81)"/><path class="cls-5" d="M1045,594.19s8.63-8.77,11.44-4.6S1040.22,600.66,1045,594.19Z" transform="translate(49.88 -245.81)"/><path class="cls-5" d="M1056,577s5.57-11.05,9.34-7.63S1053.36,584.67,1056,577Z" transform="translate(49.88 -245.81)"/><path class="cls-5" d="M1028.35,598.31s7.43-8.69,10.14-5.29S1024.32,604.56,1028.35,598.31Z" transform="translate(49.88 -245.81)"/><path class="cls-5" d="M1030,547.86s5-11.34,8.93-8.07S1027.7,555.74,1030,547.86Z" transform="translate(49.88 -245.81)"/><path class="cls-5" d="M1007.69,567.48s7.57-9.69,10.76-5.76S1003.67,574.47,1007.69,567.48Z" transform="translate(49.88 -245.81)"/><path class="cls-5" d="M1007.14,600.28s7.57-9.69,10.76-5.76S1003.12,607.27,1007.14,600.28Z" transform="translate(49.88 -245.81)"/><path class="cls-5" d="M1003.19,581.46s7.57-9.69,10.76-5.76S999.17,588.45,1003.19,581.46Z" transform="translate(49.88 -245.81)"/><path class="cls-5" d="M1023.46,564.85s7.39-9.55,10.77-5.76C1036.53,561.66,1018.35,571.58,1023.46,564.85Z" transform="translate(49.88 -245.81)"/><path class="cls-5" d="M250.92,309.61s-11.27.5-10.8-4.47S258.09,308.15,250.92,309.61Z" transform="translate(49.88 -245.81)"/><path class="cls-5" d="M260.12,298.2S250,303,249.15,298,266.27,294,260.12,298.2Z" transform="translate(49.88 -245.81)"/><path class="cls-5" d="M272.68,307s-10.14,5.09-11.05,0S278.83,302.64,272.68,307Z" transform="translate(49.88 -245.81)"/><path class="cls-5" d="M239.54,315.66s-10.11,4.44-11,.26S245.68,311.92,239.54,315.66Z" transform="translate(49.88 -245.81)"/><path class="cls-5" d="M261.21,283.77s-11.15,1.38-10.93-3.66S268.25,281.74,261.21,283.77Z" transform="translate(49.88 -245.81)"/><path class="cls-5" d="M243.69,290.25s-10.14,5.09-11.05,0S249.85,285.9,243.69,290.25Z" transform="translate(49.88 -245.81)"/><path class="cls-5" d="M275.71,291.08s-10.22,2.08-10.36-2.29S282.09,288.76,275.71,291.08Z" transform="translate(49.88 -245.81)"/><path class="cls-5" d="M247,329.41s-9.9,5.67-11,.65S252.93,324.7,247,329.41Z" transform="translate(49.88 -245.81)"/><path class="cls-5" d="M274.07,328.21S263.2,331,263,325.89,280.85,325.3,274.07,328.21Z" transform="translate(49.88 -245.81)"/><path class="cls-5" d="M292.4,303s-10.87,2.77-11.07-2.32S299.18,300.06,292.4,303Z" transform="translate(49.88 -245.81)"/><path class="cls-5" d="M285,320.14s-10.87,2.77-11.07-2.31S291.8,317.24,285,320.14Z" transform="translate(49.88 -245.81)"/><path class="cls-5" d="M261,320.28S250.37,323.05,250,318C249.67,314.49,268.46,318.26,261,320.28Z" transform="translate(49.88 -245.81)"/><path class="cls-6" d="M1285.1,317.58s-8.81,11.59-18.58,10.5-10.68,3.53-9.49-2.71,6.56-10.76,14.07-8.43S1283.34,319.51,1285.1,317.58Z" transform="translate(49.88 -245.81)"/><path class="cls-7" d="M1224.93,380.15a.34.34,0,0,1,.2-.38A113.79,113.79,0,0,0,1267,347.3a133.36,133.36,0,0,0,21.47-39.25,157,157,0,0,0,9-46.94.35.35,0,0,1,.35-.36.36.36,0,0,1,.35.36,157.82,157.82,0,0,1-9.06,47.19,134.2,134.2,0,0,1-21.59,39.46,114.45,114.45,0,0,1-42.11,32.66.36.36,0,0,1-.47-.18A.29.29,0,0,1,1224.93,380.15Z" transform="translate(49.88 -245.81)"/><path class="cls-6" d="M1265.27,349.93a21,21,0,0,1-20.49,7c-13.15-2.69-14-1.38-15.24-1s-1.69-.17,0-3.58c1-2,6.44-11,19-9S1262.48,350.88,1265.27,349.93Z" transform="translate(49.88 -245.81)"/><path class="cls-6" d="M1255.15,360.44s1.83,13.93-4.41,23.8-11.14,12.85-12.53,13,.92-1.5,0-5.4-2.07-12.25,2.12-16.81S1255.15,360.44,1255.15,360.44Z" transform="translate(49.88 -245.81)"/><path class="cls-6" d="M1280.1,328s-9.81,4.62-11,8.43,3.11,15.95,4.09,22.8c.66,4.59-2.9,12.23,2.3,6s14.74-12.43,9.7-21.91S1279.15,329.81,1280.1,328Z" transform="translate(49.88 -245.81)"/><path class="cls-6" d="M1294.46,288.06s-12.59,16.4-2.17,26,9,8.91,8.5,14.48c-.58,6.76,7.79-6.37,7.1-14.48s-6.13-8.78-7.71-16.92S1294.46,288.06,1294.46,288.06Z" transform="translate(49.88 -245.81)"/><path class="cls-6" d="M1296.31,277.84s-.83,10.68-10.3,11.23-8.39-1-11.93.36c-4.08,1.56-1.25-10.9,6.3-10.9C1284.3,278.53,1294,283.84,1296.31,277.84Z" transform="translate(49.88 -245.81)"/><path class="cls-6" d="M1236.68,374.13" transform="translate(49.88 -245.81)"/><path class="cls-6" d="M1238.57,373.12s-6.82,5.76-12.48,1.74-7.11-5.07-9.25-5.2-.47-2.7,3.51-2.74,7.68-2.15,11.63-.74C1239.19,368.74,1238.57,373.12,1238.57,373.12Z" transform="translate(49.88 -245.81)"/><path class="cls-6" d="M1227.55,379.35a7.12,7.12,0,0,0-2.81,3.48c-1.15,2.63-3.58,7.94-9.42,7.08s-6.86-.5-5.16-1.94,1.7-2.8,4-5.62S1220.61,377.16,1227.55,379.35Z" transform="translate(49.88 -245.81)"/><path class="cls-8" d="M1278.84,286.59a.21.21,0,0,1,0-.11.34.34,0,0,1,.39-.3c8.64,1.39,14.92-4.88,15-4.95a.35.35,0,0,1,.5,0,.37.37,0,0,1,0,.5c-.07.07-6.6,6.6-15.58,5.15A.36.36,0,0,1,1278.84,286.59Z" transform="translate(49.88 -245.81)"/><path class="cls-8" d="M1292.38,303.75a31.44,31.44,0,0,1,1.12-13.64.36.36,0,0,1,.44-.24.36.36,0,0,1,.23.45c-2.7,9.19-1,16,.93,20.12a21.09,21.09,0,0,0,4.86,6.81.36.36,0,0,1,0,.5.34.34,0,0,1-.49.05,21.14,21.14,0,0,1-5-7A25.54,25.54,0,0,1,1292.38,303.75Z" transform="translate(49.88 -245.81)"/><path class="cls-8" d="M1264.9,323.68a.33.33,0,0,1,0-.14.35.35,0,0,1,.43-.25c7.58,2,15.8-3.45,15.88-3.5a.35.35,0,0,1,.49.1.35.35,0,0,1-.1.49c-.34.24-8.56,5.74-16.44,3.6A.37.37,0,0,1,1264.9,323.68Z" transform="translate(49.88 -245.81)"/><path class="cls-8" d="M1276.12,352.2v0s-.11-3.1-.79-10.74a15.43,15.43,0,0,1,2.75-10.5.34.34,0,0,1,.49,0,.36.36,0,0,1,0,.5,15,15,0,0,0-2.59,10c.68,7.66.78,10.75.78,10.78a.35.35,0,0,1-.33.37A.37.37,0,0,1,1276.12,352.2Z" transform="translate(49.88 -245.81)"/><path class="cls-8" d="M1243.61,349.91a.11.11,0,0,1,0-.05.36.36,0,0,1,.35-.36c4.65,0,17.84,1.69,18,1.71a.36.36,0,0,1-.08.71c-.13,0-13.27-1.69-17.89-1.7A.35.35,0,0,1,1243.61,349.91Z" transform="translate(49.88 -245.81)"/><path class="cls-8" d="M1244.33,386.85a.36.36,0,0,1,.08-.28c5.59-7.07,8.91-23.18,8.94-23.35a.35.35,0,0,1,.42-.27.36.36,0,0,1,.27.43s-.85,4.14-2.38,9.07c-2.06,6.64-4.31,11.55-6.71,14.58a.35.35,0,0,1-.49.05A.41.41,0,0,1,1244.33,386.85Z" transform="translate(49.88 -245.81)"/><path class="cls-8" d="M1226.62,370.06V370a.35.35,0,0,1,.37-.33c4.48.31,9.66,2.87,9.88,3a.36.36,0,0,1,.16.48.33.33,0,0,1-.46.16c-.06,0-5.29-2.61-9.63-2.91A.35.35,0,0,1,1226.62,370.06Z" transform="translate(49.88 -245.81)"/><path class="cls-8" d="M1216.23,384.68a.34.34,0,0,1,.08-.29c2.58-2.88,8.61-4.57,8.87-4.64a.35.35,0,0,1,.43.25.36.36,0,0,1-.24.44c-.06,0-6.1,1.71-8.54,4.44a.35.35,0,0,1-.49,0A.33.33,0,0,1,1216.23,384.68Z" transform="translate(49.88 -245.81)"/><path class="cls-9" d="M1170.62,317a.35.35,0,0,1-.14-.6,259.71,259.71,0,0,1,39-25.93A254,254,0,0,1,1251.24,272a184.87,184.87,0,0,1,50.55-9.71.36.36,0,0,1,.38.33.34.34,0,0,1-.34.36,184.56,184.56,0,0,0-50.35,9.68,253.91,253.91,0,0,0-41.68,18.4A258.53,258.53,0,0,0,1171,316.92.36.36,0,0,1,1170.62,317Z" transform="translate(49.88 -245.81)"/><path class="cls-4" d="M1208.82,291.22s-8,6.38-8.09,15.48a15.69,15.69,0,0,0,3.89,11S1220,306.9,1208.82,291.22Z" transform="translate(49.88 -245.81)"/><path class="cls-4" d="M1206.76,292.4l1.35-.74s-14.58-12.26-27.54.76c0,0,11,9.07,27.54-.76" transform="translate(49.88 -245.81)"/><path class="cls-4" d="M1200.53,274.72s17-15.57,32.46,4.57C1233,279.29,1212.72,287.49,1200.53,274.72Z" transform="translate(49.88 -245.81)"/><path class="cls-4" d="M1183.78,306.64s-8.28-9.27-17.66-.68C1166.12,306,1175.13,312,1183.78,306.64Z" transform="translate(49.88 -245.81)"/><path class="cls-4" d="M1184,307.16s-7.72,3-5.77,13.39C1178.18,320.55,1187.69,318.22,1184,307.16Z" transform="translate(49.88 -245.81)"/><path class="cls-4" d="M1233,279.35s-19.83,10.86-6.41,29.82C1226.57,309.17,1241.83,297.16,1233,279.35Z" transform="translate(49.88 -245.81)"/><path class="cls-4" d="M1258.11,270.22s-18.41,6.68-32.42-9C1225.69,261.23,1249.35,246.6,1258.11,270.22Z" transform="translate(49.88 -245.81)"/><path class="cls-4" d="M1258.11,270.22s4.09,21.85-11.69,29.85C1246.42,300.07,1235.47,278.13,1258.11,270.22Z" transform="translate(49.88 -245.81)"/><path class="cls-4" d="M1284.14,264s-16.75,6-33.32-14.71C1250.82,249.27,1280.39,237.92,1284.14,264Z" transform="translate(49.88 -245.81)"/><path class="cls-4" d="M1284.14,264s-25,14.62-11.48,33.87C1272.66,297.85,1294.41,285,1284.14,264Z" transform="translate(49.88 -245.81)"/><path class="cls-10" d="M1180.56,317a.29.29,0,0,1-.14-.08.34.34,0,0,1,0-.5c2.75-2.79,2.48-8.21,2.4-9.21-5.19-3.42-12.53-1.42-12.6-1.4a.38.38,0,0,1-.45-.24.34.34,0,0,1,.24-.43c.32-.09,7.88-2.15,13.35,1.59l.14.09,0,.17c0,.26.66,6.62-2.59,9.92A.34.34,0,0,1,1180.56,317Z" transform="translate(49.88 -245.81)"/><path class="cls-10" d="M1205.7,310.08a.35.35,0,0,1-.25-.39c1.1-6.26,2.57-15.83,2.36-17.72-1.92-.23-14-1.57-20.71.16a.37.37,0,0,1-.44-.25.34.34,0,0,1,.25-.43c3.1-.8,7.62-1.07,13.43-.79,4.32.2,7.77.64,7.81.65l.23,0,.07.21c.57,1.75-2,16.58-2.29,18.26a.36.36,0,0,1-.42.28Z" transform="translate(49.88 -245.81)"/><path class="cls-10" d="M1227.77,302.56a.24.24,0,0,1-.11-.06.34.34,0,0,1-.08-.49c3.26-4.27,4-20.1,4.07-21.91-8.73-7.37-23.76-6-23.91-6a.35.35,0,1,1-.08-.7,46.48,46.48,0,0,1,8.88.2c4.58.53,11,2,15.71,6l.13.11V280s-.15,4.47-.74,9.42c-.79,6.68-2,11.07-3.47,13A.37.37,0,0,1,1227.77,302.56Z" transform="translate(49.88 -245.81)"/><path class="cls-10" d="M1248.42,294.94a.38.38,0,0,1-.15-.09.34.34,0,0,1,0-.5c2.29-2.26,4.42-7.06,6.17-13.88,1.21-4.74,1.85-9,2-9.68-3-5.34-9.05-7.51-13.65-8.39a40.18,40.18,0,0,0-9.51-.63.35.35,0,0,1-.39-.32.35.35,0,0,1,.32-.38,40.77,40.77,0,0,1,9.69.64c6.87,1.31,11.79,4.37,14.22,8.86l.06.1,0,.11c-.1.75-2.61,18.41-8.34,24.07A.38.38,0,0,1,1248.42,294.94Z" transform="translate(49.88 -245.81)"/><path class="cls-10" d="M1274.24,291.11l-.12-.06a.35.35,0,0,1-.06-.49c3.18-3.93,8.26-23.85,8.78-25.92-1.91-2.15-6.56-5.07-13.48-8.46-5.36-2.63-10.22-4.63-10.27-4.65a.35.35,0,0,1-.2-.45.36.36,0,0,1,.47-.19c.79.33,19.58,8.05,24.15,13.44l.11.14,0,.17c-.22.9-5.53,22.11-8.95,26.36A.38.38,0,0,1,1274.24,291.11Z" transform="translate(49.88 -245.81)"/><path class="cls-6" d="M-27,316.58s8.81,11.59,18.58,10.5S2.21,330.61,1,324.37-5.54,313.61-13,315.94-25.29,318.51-27,316.58Z" transform="translate(49.88 -245.81)"/><path class="cls-7" d="M33.12,379.15a.34.34,0,0,0-.2-.38A113.79,113.79,0,0,1-8.94,346.3a133.36,133.36,0,0,1-21.47-39.25,157,157,0,0,1-9-46.94.35.35,0,0,0-.35-.36.36.36,0,0,0-.35.36,157.82,157.82,0,0,0,9.06,47.19A134.2,134.2,0,0,0-9.48,346.76a114.45,114.45,0,0,0,42.11,32.66.36.36,0,0,0,.47-.18A.29.29,0,0,0,33.12,379.15Z" transform="translate(49.88 -245.81)"/><path class="cls-6" d="M-7.22,348.93a21,21,0,0,0,20.49,7c13.15-2.69,14-1.38,15.24-1s1.69-.17,0-3.58c-1-2-6.44-11-19-9S-4.43,349.88-7.22,348.93Z" transform="translate(49.88 -245.81)"/><path class="cls-6" d="M2.9,359.44s-1.83,13.93,4.41,23.8,11.14,12.85,12.53,13-.92-1.5,0-5.4,2.07-12.25-2.12-16.81S2.9,359.44,2.9,359.44Z" transform="translate(49.88 -245.81)"/><path class="cls-6" d="M-22,327s9.81,4.62,11.06,8.43-3.11,15.95-4.1,22.8c-.66,4.59,2.9,12.23-2.3,6s-14.74-12.43-9.7-21.91S-21.1,328.81-22,327Z" transform="translate(49.88 -245.81)"/><path class="cls-6" d="M-36.41,287.06s12.59,16.4,2.17,26-9,8.91-8.5,14.48c.58,6.76-7.79-6.37-7.1-14.48s6.13-8.78,7.71-16.92S-36.41,287.06-36.41,287.06Z" transform="translate(49.88 -245.81)"/><path class="cls-6" d="M-38.26,276.84s.83,10.68,10.3,11.23,8.39-1,11.93.36c4.08,1.56,1.25-10.9-6.3-10.9C-26.25,277.53-36,282.84-38.26,276.84Z" transform="translate(49.88 -245.81)"/><path class="cls-6" d="M21.37,373.13" transform="translate(49.88 -245.81)"/><path class="cls-6" d="M19.48,372.12s6.82,5.76,12.48,1.74,7.11-5.07,9.25-5.2.47-2.7-3.51-2.74-7.68-2.15-11.63-.74C18.86,367.74,19.48,372.12,19.48,372.12Z" transform="translate(49.88 -245.81)"/><path class="cls-6" d="M30.5,378.35a7.12,7.12,0,0,1,2.81,3.48c1.15,2.63,3.58,7.94,9.42,7.08s6.86-.5,5.16-1.94-1.7-2.8-4-5.62S37.44,376.16,30.5,378.35Z" transform="translate(49.88 -245.81)"/><path class="cls-8" d="M-20.79,285.59a.21.21,0,0,0,0-.11.34.34,0,0,0-.39-.3c-8.64,1.39-14.92-4.88-15-4.95a.35.35,0,0,0-.5,0,.37.37,0,0,0,0,.5c.07.07,6.6,6.6,15.58,5.15A.36.36,0,0,0-20.79,285.59Z" transform="translate(49.88 -245.81)"/><path class="cls-8" d="M-34.33,302.75a31.44,31.44,0,0,0-1.12-13.64.36.36,0,0,0-.44-.24.36.36,0,0,0-.23.45c2.7,9.19,1,16-.93,20.12a21.09,21.09,0,0,1-4.86,6.81.36.36,0,0,0-.05.5.34.34,0,0,0,.49.05,21.14,21.14,0,0,0,5-7A25.54,25.54,0,0,0-34.33,302.75Z" transform="translate(49.88 -245.81)"/><path class="cls-8" d="M-6.85,322.68a.33.33,0,0,0,0-.14.35.35,0,0,0-.43-.25c-7.58,2-15.8-3.45-15.88-3.5a.35.35,0,0,0-.49.1.35.35,0,0,0,.1.49c.34.24,8.56,5.74,16.44,3.6A.37.37,0,0,0-6.85,322.68Z" transform="translate(49.88 -245.81)"/><path class="cls-8" d="M-18.07,351.2v0s.11-3.1.79-10.74A15.43,15.43,0,0,0-20,329.92a.34.34,0,0,0-.49,0,.36.36,0,0,0-.05.5,15,15,0,0,1,2.59,10c-.68,7.66-.78,10.75-.78,10.78a.35.35,0,0,0,.33.37A.37.37,0,0,0-18.07,351.2Z" transform="translate(49.88 -245.81)"/><path class="cls-8" d="M14.44,348.91a.11.11,0,0,0,0-.05.36.36,0,0,0-.35-.36c-4.65,0-17.84,1.69-18,1.71a.36.36,0,0,0-.31.4.36.36,0,0,0,.39.31c.13,0,13.27-1.69,17.89-1.7A.35.35,0,0,0,14.44,348.91Z" transform="translate(49.88 -245.81)"/><path class="cls-8" d="M13.72,385.85a.36.36,0,0,0-.08-.28c-5.59-7.07-8.91-23.18-8.94-23.35a.35.35,0,0,0-.42-.27.36.36,0,0,0-.27.43s.85,4.14,2.38,9.07C8.45,378.09,10.71,383,13.1,386a.35.35,0,0,0,.49.05A.41.41,0,0,0,13.72,385.85Z" transform="translate(49.88 -245.81)"/><path class="cls-8" d="M31.43,369.06V369a.35.35,0,0,0-.37-.33c-4.47.31-9.66,2.87-9.88,3a.36.36,0,0,0-.16.48.33.33,0,0,0,.46.16c.06,0,5.29-2.61,9.63-2.91A.35.35,0,0,0,31.43,369.06Z" transform="translate(49.88 -245.81)"/><path class="cls-8" d="M41.82,383.68a.34.34,0,0,0-.08-.29c-2.58-2.88-8.61-4.57-8.87-4.64a.35.35,0,0,0-.43.25.36.36,0,0,0,.24.44c.06,0,6.1,1.71,8.54,4.44a.35.35,0,0,0,.49,0A.33.33,0,0,0,41.82,383.68Z" transform="translate(49.88 -245.81)"/><path class="cls-9" d="M87.43,316a.35.35,0,0,0,.14-.6,259.71,259.71,0,0,0-39-25.93A254,254,0,0,0,6.81,271a184.87,184.87,0,0,0-50.55-9.71.36.36,0,0,0-.38.33.34.34,0,0,0,.34.36,184.56,184.56,0,0,1,50.35,9.68,253.91,253.91,0,0,1,41.68,18.4A258.53,258.53,0,0,1,87.1,315.92.36.36,0,0,0,87.43,316Z" transform="translate(49.88 -245.81)"/><path class="cls-4" d="M49.23,290.22s8,6.38,8.09,15.48a15.69,15.69,0,0,1-3.89,11S38,305.9,49.23,290.22Z" transform="translate(49.88 -245.81)"/><path class="cls-4" d="M51.29,291.4l-1.35-.74s14.58-12.26,27.54.76c0,0-11,9.07-27.54-.76" transform="translate(49.88 -245.81)"/><path class="cls-4" d="M57.52,273.72s-17-15.57-32.46,4.57C25.06,278.29,45.33,286.49,57.52,273.72Z" transform="translate(49.88 -245.81)"/><path class="cls-4" d="M74.27,305.64s8.28-9.27,17.66-.68C91.93,305,82.92,311,74.27,305.64Z" transform="translate(49.88 -245.81)"/><path class="cls-4" d="M74.1,306.16s7.72,3,5.77,13.39C79.87,319.55,70.36,317.22,74.1,306.16Z" transform="translate(49.88 -245.81)"/><path class="cls-4" d="M25.07,278.35s19.83,10.86,6.41,29.82C31.48,308.17,16.22,296.16,25.07,278.35Z" transform="translate(49.88 -245.81)"/><path class="cls-4" d="M-.06,269.22s18.41,6.68,32.42-9C32.36,260.23,8.7,245.6-.06,269.22Z" transform="translate(49.88 -245.81)"/><path class="cls-4" d="M-.06,269.22s-4.09,21.85,11.69,29.85C11.63,299.07,22.58,277.13-.06,269.22Z" transform="translate(49.88 -245.81)"/><path class="cls-4" d="M-26.09,263s16.75,6,33.32-14.71C7.23,248.27-22.34,236.92-26.09,263Z" transform="translate(49.88 -245.81)"/><path class="cls-4" d="M-26.09,263s25,14.62,11.48,33.87C-14.61,296.85-36.36,284-26.09,263Z" transform="translate(49.88 -245.81)"/><path class="cls-10" d="M77.49,316a.29.29,0,0,0,.14-.08.35.35,0,0,0,0-.5c-2.76-2.79-2.49-8.21-2.41-9.21,5.19-3.42,12.53-1.42,12.6-1.4a.38.38,0,0,0,.45-.24.34.34,0,0,0-.24-.43c-.32-.09-7.88-2.15-13.35,1.59l-.14.09,0,.17c0,.26-.66,6.62,2.59,9.92A.34.34,0,0,0,77.49,316Z" transform="translate(49.88 -245.81)"/><path class="cls-10" d="M52.35,309.08a.35.35,0,0,0,.25-.39C51.5,302.43,50,292.86,50.24,291c1.92-.23,14-1.57,20.71.16a.37.37,0,0,0,.44-.25.34.34,0,0,0-.25-.43c-3.1-.8-7.62-1.07-13.43-.79-4.32.2-7.77.64-7.81.65l-.23,0-.07.21c-.57,1.75,2,16.58,2.29,18.26a.36.36,0,0,0,.42.28Z" transform="translate(49.88 -245.81)"/><path class="cls-10" d="M30.28,301.56a.24.24,0,0,0,.11-.06.34.34,0,0,0,.08-.49c-3.26-4.27-4-20.1-4.07-21.91,8.73-7.37,23.76-6,23.91-6a.35.35,0,1,0,.08-.7,46.48,46.48,0,0,0-8.88.2c-4.58.53-11,2-15.71,6l-.13.11V279s.15,4.47.74,9.42c.79,6.68,2,11.07,3.47,13A.37.37,0,0,0,30.28,301.56Z" transform="translate(49.88 -245.81)"/><path class="cls-10" d="M9.63,293.94a.38.38,0,0,0,.15-.09.34.34,0,0,0,0-.5c-2.29-2.26-4.42-7.06-6.17-13.88-1.21-4.74-1.85-9-2-9.68,3-5.34,9.05-7.51,13.65-8.39a40.18,40.18,0,0,1,9.51-.63.35.35,0,0,0,.39-.32.35.35,0,0,0-.32-.38,40.77,40.77,0,0,0-9.69.64C8.33,262,3.41,265.08,1,269.57l-.06.1,0,.11c.1.75,2.61,18.41,8.34,24.07A.38.38,0,0,0,9.63,293.94Z" transform="translate(49.88 -245.81)"/><path class="cls-10" d="M-16.19,290.11l.12-.06a.35.35,0,0,0,.06-.49c-3.18-3.93-8.26-23.85-8.78-25.92,1.91-2.15,6.56-5.07,13.48-8.46,5.36-2.63,10.22-4.63,10.27-4.65a.35.35,0,0,0,.2-.45.36.36,0,0,0-.47-.19c-.79.33-19.58,8.05-24.15,13.44l-.11.14,0,.17c.22.9,5.53,22.11,9,26.36A.38.38,0,0,0-16.19,290.11Z" transform="translate(49.88 -245.81)"/><path class="cls-5" d="M1179.48,879.42a82.27,82.27,0,0,0-31.82-3.5c-17.35,1.65-26.35-11.37-16.85-26.13s-10.93-16.35-16-19c-9.4-4.94-1.53-15.46,4.43-22.18s1.21-14.47,1.67-22.58,6-14.8,17.88-2.63,6.5,13.38,23.06,11.32,17.56,7.29,15.86,18.09-4.29,9,11,14.25,19.55,10.5,15.47,21.79S1175.06,869.92,1179.48,879.42Z" transform="translate(49.88 -245.81)"/><path class="cls-6" d="M1128,776.73c-4.56-.3-6.81,4.22-7.1,9.28-.25,4.43,1,8.75,1.28,12.86h0s5.55-16,8.41-9c2.51,6.17-1.9,13.46,7,15.65s13.81-5.24,13.3,3.1-8.33,13.84,5.54,21.38,23.85-1.9,20.57,8.33-15.63,14.46-5.84,21.31,10.54,6,9,7.81c-3.39,4-4.68,8.09-1,11.88l.21.06c-4.43-9.5,20.69-19.3,24.77-30.58s-.13-16.51-15.47-21.78-12.74-3.45-11-14.26.7-20.15-15.85-18.09-11.15.85-23.08-11.32C1134.33,778.83,1130.76,776.91,1128,776.73Z" transform="translate(49.88 -245.81)"/><path class="cls-8" d="M1199.2,895.3a.15.15,0,0,1-.09,0c-.17-.06-4.19-1.58-10.77-7-11-9-20.23-21.53-26.06-30.47-10.55-16.18-19.38-35.36-24.94-48.6-6-14.35-9.59-25-9.63-25.11a.28.28,0,0,1,.19-.35.27.27,0,0,1,.35.18c0,.1,3.61,10.75,9.62,25.07,5.54,13.22,14.37,32.37,24.89,48.52,5.81,8.9,15,21.39,25.94,30.33,6.51,5.33,10.57,6.87,10.61,6.89a.27.27,0,0,1-.11.53Z" transform="translate(49.88 -245.81)"/><path class="cls-8" d="M1166.21,863.43h-.07c-6.11-1.76-29.38-3.37-29.61-3.38a.28.28,0,1,1,0-.56c1,.07,23.57,1.63,29.73,3.41a.28.28,0,0,1-.09.54Z" transform="translate(49.88 -245.81)"/><path class="cls-8" d="M1160,853.94a.28.28,0,0,1-.13,0,.27.27,0,0,1-.11-.38c.42-.75,10.26-18.36,13.06-21.6a.29.29,0,0,1,.4,0,.27.27,0,0,1,0,.39c-2.76,3.2-12.89,21.32-13,21.51A.31.31,0,0,1,1160,853.94Z" transform="translate(49.88 -245.81)"/><path class="cls-8" d="M1153.2,842.25h0l-12.79-1.94a.29.29,0,0,1-.24-.32.29.29,0,0,1,.33-.23l12.78,1.94a.28.28,0,0,1,.24.32A.27.27,0,0,1,1153.2,842.25Z" transform="translate(49.88 -245.81)"/><path class="cls-8" d="M1147.86,832a.23.23,0,0,1-.14,0,.27.27,0,0,1-.08-.38l19.43-29.08a.29.29,0,0,1,.39-.08.27.27,0,0,1,.08.38l-19.43,29.08A.27.27,0,0,1,1147.86,832Z" transform="translate(49.88 -245.81)"/><path class="cls-8" d="M1171.4,870.44h-.05a.28.28,0,0,1-.22-.33l3.28-14.83a.3.3,0,0,1,.34-.22.28.28,0,0,1,.22.33l-3.28,14.84A.28.28,0,0,1,1171.4,870.44Z" transform="translate(49.88 -245.81)"/><path class="cls-8" d="M1157,818.29a.33.33,0,0,1-.25-.16.28.28,0,0,1,.15-.37l12.2-5.39a.3.3,0,0,1,.38.14.29.29,0,0,1-.14.37l-12.21,5.38A.31.31,0,0,1,1157,818.29Z" transform="translate(49.88 -245.81)"/><path class="cls-8" d="M1144,824h0c-.17,0-16.78-1.33-25.13-3.71a.28.28,0,0,1-.2-.34.3.3,0,0,1,.36-.19c8.3,2.36,24.85,3.68,25,3.69a.27.27,0,0,1,.26.3A.27.27,0,0,1,1144,824Z" transform="translate(49.88 -245.81)"/><path class="cls-8" d="M1139.77,814.5a.33.33,0,0,1-.14,0,.26.26,0,0,1-.09-.38c.06-.1,6.43-9.81,8.31-14.4a.28.28,0,0,1,.37-.15.27.27,0,0,1,.15.36c-1.89,4.63-8.29,14.39-8.35,14.48A.28.28,0,0,1,1139.77,814.5Z" transform="translate(49.88 -245.81)"/><path class="cls-8" d="M1134,800.65a.27.27,0,0,1-.17-.06s-2-1.52-4.22-3.46a32.8,32.8,0,0,1-6-6.23.28.28,0,0,1,.09-.38.29.29,0,0,1,.39.09c2.23,3.55,10,9.48,10.06,9.54a.27.27,0,0,1,0,.39A.28.28,0,0,1,1134,800.65Z" transform="translate(49.88 -245.81)"/><path class="cls-8" d="M1130.66,791.85h-.06a.27.27,0,0,1-.2-.33l1.78-6.49a.27.27,0,0,1,.34-.19.28.28,0,0,1,.21.34l-1.78,6.48A.28.28,0,0,1,1130.66,791.85Z" transform="translate(49.88 -245.81)"/><path class="cls-5" d="M1228.79,876.78a82.29,82.29,0,0,1,32-.76c17.15,3.13,27.23-9.07,19-24.59s12.29-15.35,17.55-17.57c9.79-4.12,2.85-15.27-2.51-22.48s0-14.52.27-22.64-4.66-15.25-17.58-4.15-7.63,12.77-24,9.3-18.11,5.75-17.34,16.66,3.5,9.32-12.24,13.26-20.37,8.78-17.28,20.38S1234,867.7,1228.79,876.78Z" transform="translate(49.88 -245.81)"/><path class="cls-6" d="M1288.86,778.88c4.56.09,6.42,4.78,6.27,9.86-.13,4.43-1.76,8.62-2.37,12.69h0s-4.16-16.43-7.62-9.67c-3,5.93.75,13.58-8.36,15s-13.31-6.4-13.52,2,7.11,14.51-7.35,20.83-23.6-3.94-21.21,6.54,14.33,15.74,4,21.73-11,5.08-9.64,7c3,4.24,4,8.45,0,11.92l-.22,0c5.23-9.08-19-21-22-32.59s1.54-16.44,17.27-20.38,13-2.34,12.23-13.25,1-20.14,17.35-16.67,11,1.8,24-9.3C1282.4,780.42,1286.11,778.83,1288.86,778.88Z" transform="translate(49.88 -245.81)"/><path class="cls-8" d="M1207.79,890.91h.09c.17,0,4.31-1.22,11.33-6,11.7-8,22-19.71,28.56-28.11,11.9-15.22,22.35-33.58,29-46.29,7.23-13.78,11.7-24.09,11.75-24.2a.27.27,0,0,0-.16-.36.29.29,0,0,0-.37.15c0,.1-4.51,10.4-11.73,24.16-6.65,12.69-17.08,31-29,46.2-6.55,8.37-16.8,20-28.44,28-6.94,4.75-11.12,5.94-11.16,6a.28.28,0,0,0,.07.54Z" transform="translate(49.88 -245.81)"/><path class="cls-8" d="M1243.39,862h.07c6.23-1.23,29.55-.84,29.79-.83a.28.28,0,0,0,.28-.27.28.28,0,0,0-.28-.29c-1,0-23.61-.4-29.91.85a.28.28,0,0,0-.22.33A.3.3,0,0,0,1243.39,862Z" transform="translate(49.88 -245.81)"/><path class="cls-8" d="M1250.43,853.07l.13,0a.27.27,0,0,0,.14-.36c-.35-.78-8.65-19.17-11.16-22.64a.3.3,0,0,0-.4-.06.27.27,0,0,0-.06.38c2.48,3.42,11,22.35,11.1,22.54A.3.3,0,0,0,1250.43,853.07Z" transform="translate(49.88 -245.81)"/><path class="cls-8" d="M1258.16,842h0l12.9-.84a.28.28,0,0,0,.27-.29.3.3,0,0,0-.31-.26l-12.9.84a.28.28,0,0,0-.27.29A.29.29,0,0,0,1258.16,842Z" transform="translate(49.88 -245.81)"/><path class="cls-8" d="M1264.36,832.21a.4.4,0,0,0,.15,0,.27.27,0,0,0,.11-.38l-16.86-30.63a.3.3,0,0,0-.39-.12.28.28,0,0,0-.11.38l16.86,30.63A.3.3,0,0,0,1264.36,832.21Z" transform="translate(49.88 -245.81)"/><path class="cls-8" d="M1237.61,868.52h.05a.28.28,0,0,0,.25-.31l-2-15.06a.28.28,0,0,0-.32-.24.28.28,0,0,0-.24.31l2,15.06A.28.28,0,0,0,1237.61,868.52Z" transform="translate(49.88 -245.81)"/><path class="cls-8" d="M1256.43,817.8a.31.31,0,0,0,.26-.14.28.28,0,0,0-.11-.38l-11.7-6.41a.28.28,0,1,0-.28.48l11.7,6.41A.2.2,0,0,0,1256.43,817.8Z" transform="translate(49.88 -245.81)"/><path class="cls-8" d="M1268.88,824.56h0c.16,0,16.82.12,25.35-1.54a.27.27,0,0,0,.23-.32.3.3,0,0,0-.34-.22c-8.47,1.64-25.07,1.53-25.24,1.53a.27.27,0,0,0-.28.28A.26.26,0,0,0,1268.88,824.56Z" transform="translate(49.88 -245.81)"/><path class="cls-8" d="M1273.92,815.5a.21.21,0,0,0,.15,0,.27.27,0,0,0,.12-.37c-.06-.1-5.57-10.32-7-15.05a.28.28,0,0,0-.35-.19.27.27,0,0,0-.19.35c1.49,4.78,7,15,7.08,15.15A.28.28,0,0,0,1273.92,815.5Z" transform="translate(49.88 -245.81)"/><path class="cls-8" d="M1280.83,802.19a.25.25,0,0,0,.17,0s2.12-1.35,4.5-3.08a33,33,0,0,0,6.49-5.7.28.28,0,0,0-.07-.39.28.28,0,0,0-.39.06c-2.52,3.34-10.76,8.59-10.84,8.65a.27.27,0,0,0-.08.38A.25.25,0,0,0,1280.83,802.19Z" transform="translate(49.88 -245.81)"/><path class="cls-8" d="M1284.94,793.72h.06a.27.27,0,0,0,.23-.32l-1.22-6.62a.28.28,0,0,0-.33-.22.28.28,0,0,0-.23.32l1.22,6.61A.3.3,0,0,0,1284.94,793.72Z" transform="translate(49.88 -245.81)"/><path class="cls-5" d="M1204.13,867.2a82.24,82.24,0,0,1,26-18.61c15.93-7.06,17.42-22.82,1.91-31s1.54-19.61,4.64-24.39c5.78-8.91-6.22-14.24-14.71-17.19s-8.14-12-12.5-18.88-12.43-10-16.88,6.46.87,14.85-14.58,21.15-11.75,14.94-5,23.53,8.14,5.74-2.66,17.84-11.92,18.72-2.84,26.57S1203.34,856.75,1204.13,867.2Z" transform="translate(49.88 -245.81)"/><path class="cls-6" d="M1198.79,752.47c3.83-2.49,8,.34,10.73,4.62,2.38,3.74,3.39,8.12,5.17,11.83l0,0s-12.67-11.26-11.73-3.72c.83,6.61,8.24,10.81,1.5,17.1s-14.61,2.18-10.08,9.2,14,8,5.63,21.36-21.74,10-13.87,17.33,20.7,5,15.52,15.73-6.26,10.4-4,11.22c4.9,1.8,8,4.76,6.7,9.87l-.16.15c-.78-10.45-27.48-6.71-36.56-14.56s-8-14.47,2.84-26.57,9.43-9.24,2.66-17.83-10.46-17.23,5-23.54,10.13-4.71,14.58-21.16C1194.31,757.37,1196.49,754,1198.79,752.47Z" transform="translate(49.88 -245.81)"/><path class="cls-8" d="M1194.7,890.69a.18.18,0,0,0,.07-.05c.12-.14,2.88-3.44,6-11.36,5.18-13.2,7.11-28.67,7.83-39.31,1.29-19.28-.39-40.33-2-54.6-1.76-15.45-3.86-26.5-3.88-26.61a.27.27,0,0,0-.33-.21.28.28,0,0,0-.23.33c0,.11,2.12,11.14,3.88,26.57,1.63,14.25,3.3,35.26,2,54.49-.71,10.61-2.63,26-7.78,39.15-3.07,7.83-5.86,11.16-5.89,11.19a.27.27,0,0,0,.36.41Z" transform="translate(49.88 -245.81)"/><path class="cls-8" d="M1207.89,846.76a.1.1,0,0,0,0,0c4.46-4.53,24-17.31,24.17-17.44a.28.28,0,0,0,.09-.38.29.29,0,0,0-.39-.08c-.81.53-19.76,12.95-24.27,17.51a.28.28,0,0,0,0,.4A.29.29,0,0,0,1207.89,846.76Z" transform="translate(49.88 -245.81)"/><path class="cls-8" d="M1208.7,835.42a.26.26,0,0,0,.09-.09.27.27,0,0,0-.08-.38c-.73-.45-17.93-11-22-12.45a.28.28,0,0,0-.36.17.27.27,0,0,0,.16.36c4,1.43,21.67,12.29,21.85,12.4A.29.29,0,0,0,1208.7,835.42Z" transform="translate(49.88 -245.81)"/><path class="cls-8" d="M1208.88,821.92h0l10.21-7.95a.28.28,0,0,0,.05-.39.3.3,0,0,0-.4-.05l-10.2,8a.27.27,0,0,0,0,.39A.28.28,0,0,0,1208.88,821.92Z" transform="translate(49.88 -245.81)"/><path class="cls-8" d="M1208.5,810.34a.22.22,0,0,0,.1-.11.27.27,0,0,0-.11-.37L1177.32,794a.28.28,0,0,0-.38.12.26.26,0,0,0,.11.37l31.17,15.86A.28.28,0,0,0,1208.5,810.34Z" transform="translate(49.88 -245.81)"/><path class="cls-8" d="M1206.79,855.41l0,0a.28.28,0,0,0,0-.39l-10.12-11.34a.29.29,0,0,0-.4,0,.28.28,0,0,0,0,.4l10.12,11.33A.28.28,0,0,0,1206.79,855.41Z" transform="translate(49.88 -245.81)"/><path class="cls-8" d="M1193.84,802.88a.26.26,0,0,0,.13-.26.27.27,0,0,0-.3-.25l-13.28,1.27a.29.29,0,0,0-.26.3.27.27,0,0,0,.3.25l13.28-1.27A.2.2,0,0,0,1193.84,802.88Z" transform="translate(49.88 -245.81)"/><path class="cls-8" d="M1207.94,801.48h0c.14-.1,14-9.37,20.1-15.53a.28.28,0,1,0-.39-.39c-6.09,6.13-19.88,15.36-20,15.46a.27.27,0,0,0-.08.38A.27.27,0,0,0,1207.94,801.48Z" transform="translate(49.88 -245.81)"/><path class="cls-8" d="M1207,791.15a.27.27,0,0,0,.1-.11.26.26,0,0,0-.11-.37c-.1-.06-10.4-5.41-14.29-8.49a.28.28,0,0,0-.36.43c3.93,3.12,14.27,8.5,14.38,8.55A.28.28,0,0,0,1207,791.15Z" transform="translate(49.88 -245.81)"/><path class="cls-8" d="M1205.25,776.26a.37.37,0,0,0,.12-.13s1-2.31,2-5.08a33.29,33.29,0,0,0,2.16-8.36.27.27,0,0,0-.27-.28.28.28,0,0,0-.3.27c-.2,4.18-4.06,13.15-4.1,13.24a.27.27,0,0,0,.14.36A.27.27,0,0,0,1205.25,776.26Z" transform="translate(49.88 -245.81)"/><path class="cls-8" d="M1203.89,766.94l0,0a.28.28,0,0,0,0-.39l-4.73-4.79a.3.3,0,0,0-.4,0,.29.29,0,0,0,0,.4l4.73,4.78A.27.27,0,0,0,1203.89,766.94Z" transform="translate(49.88 -245.81)"/><path class="cls-9" d="M1173.06,776.65a.29.29,0,0,1,.1-.12.28.28,0,0,1,.39.08,206,206,0,0,1,16.28,33.31,201.68,201.68,0,0,1,10.11,34.75,147,147,0,0,1,2.34,40.71.3.3,0,0,1-.31.26.28.28,0,0,1-.25-.3,145.94,145.94,0,0,0-2.33-40.56,200.14,200.14,0,0,0-10.08-34.65,204.28,204.28,0,0,0-16.23-33.21A.29.29,0,0,1,1173.06,776.65Z" transform="translate(49.88 -245.81)"/><path class="cls-4" d="M1189.3,809.34s-4.18-6.94-11.31-8a12.44,12.44,0,0,0-9,1.91S1175.81,816.51,1189.3,809.34Z" transform="translate(49.88 -245.81)"/><path class="cls-4" d="M1188.59,807.6l.44,1.14s11.15-10.16,2.28-21.7c0,0-8.27,7.72-2.28,21.7" transform="translate(49.88 -245.81)"/><path class="cls-4" d="M1203.12,804.56s10.45,15-7,25C1196.14,829.57,1191.82,812.8,1203.12,804.56Z" transform="translate(49.88 -245.81)"/><path class="cls-4" d="M1179.81,788.07s8.14-5.53,2.38-13.79C1182.19,774.28,1176.53,780.72,1179.81,788.07Z" transform="translate(49.88 -245.81)"/><path class="cls-4" d="M1179.39,788.15s-1.57-6.38-9.92-5.93C1169.47,782.22,1170.31,789.93,1179.39,788.15Z" transform="translate(49.88 -245.81)"/><path class="cls-4" d="M1196.09,829.56s-6.45-16.71-22.75-8.15C1173.34,821.41,1181.18,834.65,1196.09,829.56Z" transform="translate(49.88 -245.81)"/><path class="cls-4" d="M1200.63,850.25s-3.32-15.16,10.45-24.52C1211.08,825.73,1220.1,845.84,1200.63,850.25Z" transform="translate(49.88 -245.81)"/><path class="cls-4" d="M1200.63,850.25s-17.59.92-22.22-12.31C1178.41,837.94,1196.79,831.64,1200.63,850.25Z" transform="translate(49.88 -245.81)"/><path class="cls-4" d="M1202.81,871.34s-3-13.78,15-24.62C1217.84,846.72,1223.66,871.12,1202.81,871.34Z" transform="translate(49.88 -245.81)"/><path class="cls-4" d="M1202.81,871.34s-8.87-21.14-25.4-12.56C1177.41,858.78,1185.26,877.21,1202.81,871.34Z" transform="translate(49.88 -245.81)"/><path class="cls-10" d="M1172,784.46a.25.25,0,0,1,.08-.1.27.27,0,0,1,.39,0c1.91,2.45,6.19,2.81,7,2.85,3.23-3.71,2.43-9.69,2.42-9.75a.28.28,0,0,1,.24-.32.27.27,0,0,1,.31.23c0,.26.86,6.41-2.65,10.32l-.09.09h-.13c-.21,0-5.27-.17-7.52-3.07A.3.3,0,0,1,1172,784.46Z" transform="translate(49.88 -245.81)"/><path class="cls-10" d="M1174.81,804.93a.29.29,0,0,1,.34-.16c4.8,1.51,12.16,3.68,13.66,3.7.38-1.48,2.71-10.84,2-16.28a.3.3,0,0,1,.24-.32.28.28,0,0,1,.31.24,38.09,38.09,0,0,1-.78,10.64c-.61,3.36-1.32,6-1.33,6.06l0,.18-.17,0c-1.44.27-12.81-3.3-14.1-3.71a.27.27,0,0,1-.18-.35Z" transform="translate(49.88 -245.81)"/><path class="cls-10" d="M1178.41,823l.06-.08a.26.26,0,0,1,.39,0c3,3,15.37,5.24,16.78,5.49,6.7-6.09,7.17-18,7.18-18.16a.29.29,0,0,1,.28-.28.27.27,0,0,1,.27.29,36.38,36.38,0,0,1-1.08,7c-.9,3.54-2.73,8.44-6.39,11.7l-.1.09-.13,0s-3.5-.59-7.32-1.57c-5.16-1.32-8.49-2.7-9.88-4.09A.29.29,0,0,1,1178.41,823Z" transform="translate(49.88 -245.81)"/><path class="cls-10" d="M1182.24,840.05a.28.28,0,0,1,.08-.11.27.27,0,0,1,.39,0c1.54,2,5.09,4.21,10.26,6.3,3.59,1.44,6.83,2.39,7.39,2.55,4.51-1.77,6.85-6.32,8-9.84a31.58,31.58,0,0,0,1.49-7.41.29.29,0,0,1,.29-.27.27.27,0,0,1,.26.29,32.15,32.15,0,0,1-1.51,7.55c-1.75,5.25-4.67,8.79-8.44,10.24l-.09,0-.08,0c-.58-.16-14.19-4-18-9.07A.28.28,0,0,1,1182.24,840.05Z" transform="translate(49.88 -245.81)"/><path class="cls-10" d="M1182.54,860.73a.24.24,0,0,1,.06-.09.27.27,0,0,1,.39,0c2.75,2.9,17.86,9,19.44,9.6,1.89-1.27,4.67-4.62,8-9.7,2.62-3.93,4.7-7.54,4.72-7.58a.29.29,0,0,1,.38-.11.29.29,0,0,1,.1.39c-.34.59-8.37,14.54-13.08,17.56l-.12.07-.13,0c-.69-.27-16.79-6.65-19.76-9.79A.27.27,0,0,1,1182.54,860.73Z" transform="translate(49.88 -245.81)"/><path class="cls-4" d="M1097.51,881.75a60,60,0,0,1,27.13-.5c14.46,3.22,23.26-8.78,16.64-24.21s10.74-15.11,15.24-17.26c8.38-4,2.74-15.1-1.65-22.28s.33-14.38.7-22.42-3.62-15.14-14.81-4.24-6.73,12.58-20.49,9-15.47,5.55-15,16.36,2.78,9.26-10.64,13-17.45,8.54-15.07,20S1102.13,872.79,1097.51,881.75Z" transform="translate(49.88 -245.81)"/><path class="cls-11" d="M1150.47,785.27c3.87.13,5.34,4.79,5.11,9.81-.21,4.39-1.68,8.53-2.28,12.55h0s-3.17-16.3-6.24-9.63c-2.7,5.85.34,13.45-7.41,14.77s-11.14-6.44-11.49,1.82,5.72,14.43-6.67,20.57-19.92-4.08-18.11,6.31,11.81,15.7,2.93,21.55-9.45,5-8.32,6.87c2.49,4.22,3.18,8.4-.26,11.8l-.18,0c4.62-9-15.62-21-18-32.45s1.65-16.27,15.07-20,11.06-2.22,10.64-13,1.3-19.93,15-16.37,9.31,1.87,20.5-9C1145,786.75,1148.14,785.19,1150.47,785.27Z" transform="translate(49.88 -245.81)"/><path class="cls-12" d="M1149.69,792.23a.27.27,0,0,0-.13.15c-.16.41-16.1,40.76-36,69.36-5.72,8.24-14.65,19.7-24.68,27.5-6,4.65-9.53,5.78-9.56,5.8a.27.27,0,0,0-.19.34.28.28,0,0,0,.35.19c.15-.05,3.69-1.19,9.75-5.9,5.56-4.32,14.39-12.63,24.8-27.62s19.64-33.07,25.56-45.61c6.42-13.58,10.42-23.76,10.46-23.86a.27.27,0,0,0-.16-.36A.3.3,0,0,0,1149.69,792.23Z" transform="translate(49.88 -245.81)"/><path class="cls-12" d="M1110.08,866.69a.28.28,0,0,0-.15.31.28.28,0,0,0,.33.21c5.3-1.17,25-.6,25.24-.59a.3.3,0,0,0,.3-.27.29.29,0,0,0-.27-.29c-.82,0-20-.58-25.38.61Z" transform="translate(49.88 -245.81)"/><path class="cls-12" d="M1107.28,835.46h0a.28.28,0,0,0-.1.38c2,3.41,8.86,22.22,8.93,22.4a.28.28,0,0,0,.36.17.28.28,0,0,0,.17-.36c-.28-.78-6.92-19-9-22.5A.28.28,0,0,0,1107.28,835.46Z" transform="translate(49.88 -245.81)"/><path class="cls-12" d="M1123,847a.29.29,0,0,0-.16.27.28.28,0,0,0,.3.26l10.95-.73a.28.28,0,0,0,.27-.3.28.28,0,0,0-.29-.26l-11,.73Z" transform="translate(49.88 -245.81)"/><path class="cls-12" d="M1114.83,806.9a.28.28,0,0,0-.13.36l13.64,30.47a.28.28,0,0,0,.38.13.27.27,0,0,0,.14-.36L1115.22,807a.28.28,0,0,0-.37-.14Z" transform="translate(49.88 -245.81)"/><path class="cls-12" d="M1103.67,858.18a.29.29,0,0,0-.15.28l1.37,14.94a.27.27,0,0,0,.31.24.29.29,0,0,0,.26-.31l-1.38-14.93a.28.28,0,0,0-.31-.25Z" transform="translate(49.88 -245.81)"/><path class="cls-12" d="M1112.28,816.59a.22.22,0,0,0-.1.09.27.27,0,0,0,.07.39l9.78,6.44a.28.28,0,0,0,.39-.08.26.26,0,0,0-.07-.38l-9.78-6.44A.3.3,0,0,0,1112.28,816.59Z" transform="translate(49.88 -245.81)"/><path class="cls-12" d="M1132.47,829.83a.29.29,0,0,0-.16.24.27.27,0,0,0,.27.29c.14,0,14.26.24,21.53-1.33a.27.27,0,0,0,.22-.33.26.26,0,0,0-.33-.21c-7.2,1.55-21.26,1.31-21.4,1.31A.28.28,0,0,0,1132.47,829.83Z" transform="translate(49.88 -245.81)"/><path class="cls-12" d="M1131.27,805.89a.28.28,0,0,0-.15.32c1.16,4.74,5.63,14.95,5.68,15a.28.28,0,0,0,.37.14.29.29,0,0,0,.15-.37c0-.1-4.5-10.26-5.65-15a.28.28,0,0,0-.34-.2Z" transform="translate(49.88 -245.81)"/><path class="cls-12" d="M1152.5,799.23a.27.27,0,0,0-.11.1c-2.2,3.28-9.29,8.42-9.36,8.47a.28.28,0,0,0-.07.39.29.29,0,0,0,.4,0c.29-.21,7.24-5.24,9.5-8.61a.29.29,0,0,0-.08-.39A.31.31,0,0,0,1152.5,799.23Z" transform="translate(49.88 -245.81)"/><path class="cls-12" d="M1145.83,792.86a.28.28,0,0,0-.15.29l.89,6.55a.28.28,0,0,0,.32.24.3.3,0,0,0,.24-.32l-.89-6.56a.28.28,0,0,0-.32-.23Z" transform="translate(49.88 -245.81)"/><path class="cls-4" d="M1070.9,884.12a60,60,0,0,0-27.13-.5c-14.47,3.23-23.27-8.77-16.64-24.2s-10.74-15.11-15.25-17.26c-8.38-4-2.73-15.11,1.66-22.28s-.34-14.38-.71-22.42,3.63-15.14,14.81-4.25,6.74,12.59,20.49,9,15.47,5.56,15,16.37-2.77,9.26,10.65,13,17.45,8.54,15.07,20S1066.28,875.16,1070.9,884.12Z" transform="translate(49.88 -245.81)"/><path class="cls-11" d="M1017.94,787.65c-3.87.13-5.34,4.78-5.11,9.81.2,4.39,1.67,8.52,2.28,12.55h0s3.18-16.3,6.25-9.64c2.69,5.85-.34,13.46,7.4,14.78s11.15-6.44,11.5,1.82-5.72,14.43,6.66,20.57,19.92-4.08,18.12,6.31-11.82,15.7-2.93,21.55,9.44,5,8.31,6.87c-2.48,4.22-3.18,8.4.26,11.8l.19,0c-4.62-9,15.62-20.94,18-32.45s-1.66-16.27-15.07-20-11.06-2.22-10.64-13-1.3-19.93-15.06-16.36-9.31,1.87-20.49-9C1023.44,789.13,1020.26,787.57,1017.94,787.65Z" transform="translate(49.88 -245.81)"/><path class="cls-12" d="M1018.71,794.61a.29.29,0,0,1,.14.15c.16.41,16.09,40.76,36,69.36,5.73,8.24,14.66,19.7,24.68,27.5,6,4.64,9.53,5.78,9.57,5.79a.29.29,0,0,1,.19.35.27.27,0,0,1-.35.18c-.15,0-3.69-1.18-9.75-5.89-5.57-4.33-14.39-12.64-24.8-27.62s-19.65-33.07-25.57-45.61c-6.41-13.59-10.42-23.77-10.46-23.87a.27.27,0,0,1,.16-.35A.3.3,0,0,1,1018.71,794.61Z" transform="translate(49.88 -245.81)"/><path class="cls-12" d="M1058.33,869.07a.27.27,0,0,1-.18.51c-5.3-1.17-25-.59-25.24-.59a.28.28,0,0,1-.3-.27.27.27,0,0,1,.27-.28c.81,0,20-.58,25.38.6Z" transform="translate(49.88 -245.81)"/><path class="cls-12" d="M1061.13,837.83h0a.28.28,0,0,1,.1.38c-2,3.41-8.87,22.22-8.94,22.41a.27.27,0,0,1-.36.16.29.29,0,0,1-.17-.36c.28-.77,6.92-19,9-22.49A.29.29,0,0,1,1061.13,837.83Z" transform="translate(49.88 -245.81)"/><path class="cls-12" d="M1045.38,849.39a.28.28,0,0,1,.16.27.27.27,0,0,1-.29.25l-11-.72a.29.29,0,0,1-.26-.3.27.27,0,0,1,.29-.26l11,.73A.2.2,0,0,1,1045.38,849.39Z" transform="translate(49.88 -245.81)"/><path class="cls-12" d="M1053.57,809.27a.29.29,0,0,1,.14.37l-13.65,30.47a.28.28,0,0,1-.37.13.29.29,0,0,1-.15-.37l13.65-30.47a.27.27,0,0,1,.37-.13Z" transform="translate(49.88 -245.81)"/><path class="cls-12" d="M1064.73,860.56a.29.29,0,0,1,.16.28l-1.38,14.93a.28.28,0,0,1-.3.25.3.3,0,0,1-.26-.31l1.38-14.93a.27.27,0,0,1,.3-.25Z" transform="translate(49.88 -245.81)"/><path class="cls-12" d="M1056.12,819a.31.31,0,0,1,.11.09.28.28,0,0,1-.07.39l-9.78,6.44a.29.29,0,0,1-.39-.08.26.26,0,0,1,.07-.38l9.78-6.45A.26.26,0,0,1,1056.12,819Z" transform="translate(49.88 -245.81)"/><path class="cls-12" d="M1035.94,832.21a.28.28,0,0,1,.16.24.28.28,0,0,1-.27.28c-.14,0-14.27.25-21.54-1.32a.3.3,0,0,1-.22-.34.28.28,0,0,1,.33-.21c7.21,1.56,21.26,1.32,21.41,1.32A.31.31,0,0,1,1035.94,832.21Z" transform="translate(49.88 -245.81)"/><path class="cls-12" d="M1037.14,808.27a.27.27,0,0,1,.15.31c-1.17,4.75-5.64,14.95-5.68,15.06a.28.28,0,0,1-.37.14.29.29,0,0,1-.15-.37c0-.11,4.5-10.27,5.65-15a.28.28,0,0,1,.34-.2Z" transform="translate(49.88 -245.81)"/><path class="cls-12" d="M1015.91,801.61a.26.26,0,0,1,.11.1c2.2,3.28,9.29,8.41,9.36,8.46a.28.28,0,0,1,.07.39.29.29,0,0,1-.4.06c-.29-.21-7.24-5.24-9.5-8.61a.28.28,0,0,1,.08-.39A.28.28,0,0,1,1015.91,801.61Z" transform="translate(49.88 -245.81)"/><path class="cls-12" d="M1022.57,795.23a.3.3,0,0,1,.16.29l-.89,6.56a.28.28,0,0,1-.56-.08l.89-6.56a.27.27,0,0,1,.32-.23Z" transform="translate(49.88 -245.81)"/><path class="cls-5" d="M1066,854.51s1.14-10.74,7.89-14.09,5.53-6.56,7.22-2.25,0,9.31-5.79,11S1066.37,852.6,1066,854.51Z" transform="translate(49.88 -245.81)"/><path class="cls-13" d="M1079.81,894.6l0-.05A109.7,109.7,0,0,1,1067,861.86a95.78,95.78,0,0,1-1.57-33.12,86.77,86.77,0,0,1,14.39-37.39.28.28,0,0,1,.39-.07.29.29,0,0,1,.08.39,86.11,86.11,0,0,0-14.3,37.15,95.05,95.05,0,0,0,1.55,32.91,109.37,109.37,0,0,0,12.66,32.53.28.28,0,0,1-.08.39A.29.29,0,0,1,1079.81,894.6Z" transform="translate(49.88 -245.81)"/><path class="cls-5" d="M1066.08,826.49a16.47,16.47,0,0,1,10.53-12.71c9.57-3.76,9.57-4.9,10.25-5.67s1.17-.59,1.43,2.18c.16,1.64.17,9.41-8.73,13.35S1067.52,824.76,1066.08,826.49Z" transform="translate(49.88 -245.81)"/><path class="cls-5" d="M1068.5,815.88s-6.68-7.8-6.53-16.42,2.15-12.47,3-13.13,0,1.3,2.14,3.31,6.17,6.67,5.25,11.19S1068.5,815.88,1068.5,815.88Z" transform="translate(49.88 -245.81)"/><path class="cls-5" d="M1065.13,846.06s4.53-6.87,3.83-9.72-8.3-8.51-11.64-12.3c-2.23-2.55-2.93-8.7-3.86-2.76s-4.65,13.7,2.36,17.44S1065,844.56,1065.13,846.06Z" transform="translate(49.88 -245.81)"/><path class="cls-5" d="M1071.57,876.48s1.69-15.25-8.85-16.86-9.33-1.77-11.21-5.39c-2.3-4.38-2.54,7.12,1.1,11.81s7.43,2.86,11.66,7.21S1071.57,876.48,1071.57,876.48Z" transform="translate(49.88 -245.81)"/><path class="cls-5" d="M1074.39,883.51s-3.67-6.89,2.25-11.13,5.82-2.84,7.58-5.14c2-2.64,5.11,6.18.22,9.29C1081.9,878.14,1073.51,878.9,1074.39,883.51Z" transform="translate(49.88 -245.81)"/><path class="cls-5" d="M1075.06,799.87" transform="translate(49.88 -245.81)"/><path class="cls-5" d="M1074.23,801.27s2.15-6.34,7.4-6.21,6.6.18,8-.62,1.36,1.46-1.2,3.13-4.12,4.48-7.24,5.25C1075.56,804.21,1074.23,801.27,1074.23,801.27Z" transform="translate(49.88 -245.81)"/><path class="cls-5" d="M1078.91,792.91a5.21,5.21,0,0,0,.45-3.3c-.29-2.09-.81-6.34,3.31-8.22s4.64-2.52,4.1-.94,0,2.42-.37,5.1S1084.27,791.4,1078.91,792.91Z" transform="translate(49.88 -245.81)"/><path class="cls-8" d="M1074,880.71a.3.3,0,0,1-.08-.27c0-.06,1.68-6.76,8.06-9.57a.28.28,0,0,1,.37.14.27.27,0,0,1-.13.37c-6.14,2.71-7.74,9.14-7.75,9.21a.28.28,0,0,1-.34.2A.35.35,0,0,1,1074,880.71Z" transform="translate(49.88 -245.81)"/><path class="cls-8" d="M1056.34,860.77a.27.27,0,0,1-.08-.22.26.26,0,0,1,.3-.25,15.83,15.83,0,0,1,6,2.23c3,1.79,6.88,5.37,8.8,12.31a.28.28,0,0,1-.2.34.3.3,0,0,1-.34-.21c-1.86-6.74-5.66-10.21-8.51-12a16,16,0,0,0-5.82-2.17A.25.25,0,0,1,1056.34,860.77Z" transform="translate(49.88 -245.81)"/><path class="cls-8" d="M1067.2,851.65a.29.29,0,0,1-.06-.32c.13-.28,3.28-7,9.23-9a.3.3,0,0,1,.36.18.29.29,0,0,1-.17.36c-5.72,1.86-8.88,8.62-8.91,8.69a.27.27,0,0,1-.37.13Z" transform="translate(49.88 -245.81)"/><path class="cls-8" d="M1064.82,843.6a.27.27,0,0,1-.08-.24,10.51,10.51,0,0,0-2.25-7.17c-3.46-4.42-4.74-6.27-4.76-6.29a.28.28,0,0,1,.07-.39.29.29,0,0,1,.39.08s1.29,1.86,4.74,6.27a10.8,10.8,0,0,1,2.36,7.59.27.27,0,0,1-.31.23A.27.27,0,0,1,1064.82,843.6Z" transform="translate(49.88 -245.81)"/><path class="cls-8" d="M1067.44,824.29a.18.18,0,0,1,0-.07.28.28,0,0,1,.12-.38c.09,0,9.26-4.42,12.25-6.32a.29.29,0,0,1,.39.09.28.28,0,0,1-.08.39c-3,1.91-12.22,6.31-12.31,6.35A.27.27,0,0,1,1067.44,824.29Z" transform="translate(49.88 -245.81)"/><path class="cls-8" d="M1068.11,813.72a.33.33,0,0,1-.06-.1s-1.09-2.9-2-6.55c-1.29-4.93-1.76-8.87-1.4-11.72a.28.28,0,0,1,.31-.24.3.3,0,0,1,.25.32c-.84,6.64,3.36,17.89,3.4,18a.27.27,0,0,1-.16.36A.28.28,0,0,1,1068.11,813.72Z" transform="translate(49.88 -245.81)"/><path class="cls-8" d="M1075.3,800.8a.28.28,0,0,1,.16-.47,24.91,24.91,0,0,0,7.37-2.18.3.3,0,0,1,.39.12.28.28,0,0,1-.11.38,25.34,25.34,0,0,1-7.57,2.24A.3.3,0,0,1,1075.3,800.8Z" transform="translate(49.88 -245.81)"/><path class="cls-8" d="M1079.9,791.71a.28.28,0,0,1,0-.39s3.27-3.56,3.78-6.24a.26.26,0,0,1,.32-.21.3.3,0,0,1,.23.33c-.54,2.83-3.78,6.36-3.92,6.51a.28.28,0,0,1-.39,0Z" transform="translate(49.88 -245.81)"/><path class="cls-5" d="M23.6,876.17a82.21,82.21,0,0,0-31.29-6.75c-17.43-.15-25-14-14.07-27.73s-9.19-17.39-13.94-20.55c-8.84-5.88.07-15.54,6.69-21.61s2.69-14.27,4-22.29,7.44-14.1,18.05-.77,5.1,14,21.78,13.63,16.72,9,13.92,19.62-5.2,8.5,9.52,15.32,18.37,12.45,13.15,23.26S20.18,866.27,23.6,876.17Z" transform="translate(49.88 -245.81)"/><path class="cls-6" d="M-17,768.74c-4.51-.77-7.21,3.49-8,8.5-.7,4.38.11,8.8,0,12.91l0,0s7.17-15.36,9.29-8.07c1.87,6.4-3.28,13.2,5.4,16.29s14.28-3.78,12.92,4.45-9.71,12.92,3.3,21.84,23.93.57,19.61,10.41-17,12.77-8,20.59,9.87,7.07,8.15,8.7c-3.78,3.6-5.49,7.56-2.23,11.71l.2.09c-3.42-9.91,22.57-17.07,27.79-27.88S53,831.86,38.24,825s-12.32-4.74-9.52-15.31,2.77-20-13.92-19.63S3.63,789.8-7,776.47C-11,771.47-14.31,769.2-17,768.74Z" transform="translate(49.88 -245.81)"/><path class="cls-8" d="M41.58,894l-.08,0c-.16-.08-4-2-10-8.05-10-10.06-17.9-23.49-22.78-33C-.11,835.76-6.93,815.77-11.09,802c-4.52-14.89-7-25.86-7-26a.28.28,0,0,1,.22-.33.29.29,0,0,1,.34.21c0,.11,2.48,11.07,7,25.94,4.16,13.72,11,33.67,19.78,50.81,4.86,9.46,12.74,22.83,22.67,32.85,5.93,6,9.81,7.92,9.85,7.94a.27.27,0,0,1,.13.37A.3.3,0,0,1,41.58,894Z" transform="translate(49.88 -245.81)"/><path class="cls-8" d="M12.05,858.9l-.07,0c-5.89-2.38-28.87-6.37-29.1-6.41a.28.28,0,0,1-.24-.32.28.28,0,0,1,.33-.22c1,.16,23.28,4,29.22,6.44a.28.28,0,0,1,.16.37A.28.28,0,0,1,12.05,858.9Z" transform="translate(49.88 -245.81)"/><path class="cls-8" d="M6.8,848.82a.31.31,0,0,1-.12-.05.27.27,0,0,1-.07-.38c.49-.71,12.09-17.21,15.21-20.14a.28.28,0,0,1,.4,0,.27.27,0,0,1,0,.39c-3.08,2.89-15,19.88-15.14,20.05A.31.31,0,0,1,6.8,848.82Z" transform="translate(49.88 -245.81)"/><path class="cls-8" d="M1.28,836.5h0l-12.52-3.25a.27.27,0,0,1-.2-.33.28.28,0,0,1,.34-.2L1.39,836a.28.28,0,0,1,.21.34A.29.29,0,0,1,1.28,836.5Z" transform="translate(49.88 -245.81)"/><path class="cls-8" d="M-3,825.71a.24.24,0,0,1-.13-.05.28.28,0,0,1,0-.39l22.32-26.93a.29.29,0,0,1,.4,0,.27.27,0,0,1,0,.39L-2.7,825.62A.3.3,0,0,1-3,825.71Z" transform="translate(49.88 -245.81)"/><path class="cls-8" d="M16.49,866.41h0a.28.28,0,0,1-.18-.35l4.79-14.43a.29.29,0,0,1,.36-.17.27.27,0,0,1,.18.35L16.8,866.22A.28.28,0,0,1,16.49,866.41Z" transform="translate(49.88 -245.81)"/><path class="cls-8" d="M7.53,813.05a.28.28,0,0,1,0-.54l12.7-4.1a.29.29,0,0,1,.36.18.28.28,0,0,1-.18.35L7.66,813A.29.29,0,0,1,7.53,813.05Z" transform="translate(49.88 -245.81)"/><path class="cls-8" d="M-6,817.36h0c-.16,0-16.54-3.05-24.61-6.28a.27.27,0,0,1-.16-.36.28.28,0,0,1,.37-.15c8,3.21,24.34,6.21,24.5,6.24a.28.28,0,0,1,.23.33A.28.28,0,0,1-6,817.36Z" transform="translate(49.88 -245.81)"/><path class="cls-8" d="M-9.22,807.51a.25.25,0,0,1-.14-.06.27.27,0,0,1,0-.39C-9.33,807-2,798,.34,793.6a.28.28,0,0,1,.38-.11.26.26,0,0,1,.12.37c-2.36,4.42-9.73,13.46-9.8,13.55A.27.27,0,0,1-9.22,807.51Z" transform="translate(49.88 -245.81)"/><path class="cls-8" d="M-13.51,793.14a.3.3,0,0,1-.15-.07s-1.83-1.73-3.85-3.88a33,33,0,0,1-5.3-6.81.27.27,0,0,1,.14-.37.29.29,0,0,1,.37.13c1.85,3.76,9,10.46,9,10.53a.27.27,0,0,1,0,.39A.29.29,0,0,1-13.51,793.14Z" transform="translate(49.88 -245.81)"/><path class="cls-8" d="M-15.95,784.05l-.06,0a.28.28,0,0,1-.17-.36l2.44-6.26a.29.29,0,0,1,.37-.16.27.27,0,0,1,.16.36l-2.44,6.26A.27.27,0,0,1-15.95,784.05Z" transform="translate(49.88 -245.81)"/><path class="cls-5" d="M72.93,878.62a82,82,0,0,1,31.91,2.54c16.73,4.87,28-6.23,21.45-22.51s13.81-14,19.27-15.67c10.16-3.09,4.4-14.9-.19-22.62s1.53-14.44,2.6-22.49-3.07-15.65-17.07-5.94-8.9,11.92-24.78,6.79-18.61,3.86-19,14.79,2.53,9.63-13.53,11.93-21.17,6.64-19.28,18.49S79.06,870.12,72.93,878.62Z" transform="translate(49.88 -245.81)"/><path class="cls-6" d="M142.74,787.41c4.53.57,5.9,5.42,5.23,10.45-.59,4.4-2.64,8.4-3.67,12.39h0s-2.44-16.77-6.58-10.4c-3.62,5.59-.66,13.58-9.86,14s-12.58-7.74-13.65.54,5.59,15.17-9.45,20S81.65,828.07,83,838.73s12.64,17.14,1.74,22-11.49,3.92-10.31,6c2.59,4.53,3.08,8.82-1.24,11.86l-.21,0c6.13-8.5-16.7-22.84-18.59-34.69s3.22-16.2,19.28-18.49,13.17-1,13.53-11.93,3.09-19.92,19-14.79,10.79,2.92,24.79-6.79C136.16,788.29,140,787.08,142.74,787.41Z" transform="translate(49.88 -245.81)"/><path class="cls-8" d="M50.58,890.51h.09c.18,0,4.41-.77,11.89-4.83,12.46-6.76,23.9-17.34,31.31-25,13.4-13.91,25.68-31.09,33.62-43.06,8.61-13,14.12-22.76,14.17-22.86a.26.26,0,0,0-.11-.37.28.28,0,0,0-.39.11c0,.09-5.55,9.88-14.15,22.82-7.93,12-20.19,29.1-33.56,43-7.37,7.66-18.77,18.2-31.17,24.93-7.39,4-11.67,4.76-11.71,4.77a.27.27,0,0,0,0,.54Z" transform="translate(49.88 -245.81)"/><path class="cls-8" d="M89,865.4H89c6.33-.59,29.49,2.2,29.72,2.23a.28.28,0,0,0,.32-.24.3.3,0,0,0-.25-.31c-1-.11-23.46-2.83-29.85-2.23a.27.27,0,0,0,0,.54Z" transform="translate(49.88 -245.81)"/><path class="cls-8" d="M96.89,857.25a.2.2,0,0,0,.13,0,.27.27,0,0,0,.18-.34c-.27-.82-6.63-20-8.78-23.67a.28.28,0,0,0-.38-.1.26.26,0,0,0-.11.37c2.11,3.66,8.66,23.36,8.73,23.56A.26.26,0,0,0,96.89,857.25Z" transform="translate(49.88 -245.81)"/><path class="cls-8" d="M105.72,847h0l12.92.49a.28.28,0,1,0,0-.55l-12.92-.5a.28.28,0,0,0-.29.27A.27.27,0,0,0,105.72,847Z" transform="translate(49.88 -245.81)"/><path class="cls-8" d="M112.89,837.94a.26.26,0,0,0,.15,0,.27.27,0,0,0,.15-.36L99.57,805.35a.29.29,0,0,0-.37-.15.27.27,0,0,0-.16.36l13.63,32.21A.29.29,0,0,0,112.89,837.94Z" transform="translate(49.88 -245.81)"/><path class="cls-8" d="M82.55,871.31h0a.27.27,0,0,0,.27-.29l-.43-15.19a.3.3,0,0,0-.3-.27.28.28,0,0,0-.27.28L82.31,871A.28.28,0,0,0,82.55,871.31Z" transform="translate(49.88 -245.81)"/><path class="cls-8" d="M106.48,822.79a.26.26,0,0,0,.27-.11.28.28,0,0,0-.07-.39l-11-7.58a.3.3,0,0,0-.4.06.28.28,0,0,0,.07.39l11,7.58A.31.31,0,0,0,106.48,822.79Z" transform="translate(49.88 -245.81)"/><path class="cls-8" d="M118.17,830.8h0c.17,0,16.72,1.85,25.38,1.08a.28.28,0,1,0-.06-.55c-8.6.76-25.1-1.06-25.26-1.08a.28.28,0,0,0-.07.55Z" transform="translate(49.88 -245.81)"/><path class="cls-8" d="M124.12,822.31a.39.39,0,0,0,.15,0,.28.28,0,0,0,.15-.36c0-.11-4.47-10.84-5.45-15.7a.3.3,0,0,0-.34-.22.28.28,0,0,0-.22.33c1,4.91,5.44,15.69,5.49,15.8A.3.3,0,0,0,124.12,822.31Z" transform="translate(49.88 -245.81)"/><path class="cls-8" d="M132.36,809.78a.25.25,0,0,0,.17,0s2.25-1.12,4.8-2.6a33,33,0,0,0,7-5,.26.26,0,0,0,0-.39.28.28,0,0,0-.4,0c-2.85,3.07-11.58,7.44-11.67,7.49a.27.27,0,0,0-.12.37A.27.27,0,0,0,132.36,809.78Z" transform="translate(49.88 -245.81)"/><path class="cls-8" d="M137.32,801.77h.06a.27.27,0,0,0,.26-.29l-.53-6.7a.28.28,0,0,0-.31-.26.28.28,0,0,0-.26.29l.53,6.71A.3.3,0,0,0,137.32,801.77Z" transform="translate(49.88 -245.81)"/><path class="cls-5" d="M49.38,866.55A82.13,82.13,0,0,1,77.2,850.72c16.58-5.38,19.68-20.9,5.1-30.68s3.54-19.34,7.12-23.79c6.67-8.27-4.73-14.8-12.87-18.6s-6.85-12.81-10.49-20.07-11.33-11.22-17.45,4.69S48,777.13,31.93,781.81s-13.22,13.65-7.38,22.89,7.51,6.55-4.48,17.47-13.78,17.4-5.56,26.14S49.67,856.07,49.38,866.55Z" transform="translate(49.88 -245.81)"/><path class="cls-6" d="M55.86,751.88c4.07-2.09,7.93,1.16,10.2,5.7,2,4,2.54,8.43,3.93,12.3l0,0s-11.45-12.5-11.29-4.9c.14,6.66,7.09,11.6-.26,17.16s-14.76.67-11,8.12,13.14,9.4,3.4,21.82-22.65,7.73-15.57,15.82S55.34,835,49.07,845.17s-7.29,9.7-5.16,10.74c4.68,2.3,7.5,5.56,5.64,10.5l-.17.14c.3-10.47-26.65-9.5-34.87-18.24s-6.44-15.21,5.56-26.14S30.4,814,24.55,804.71s-8.64-18.22,7.38-22.9,10.57-3.65,16.69-19.55C50.91,756.3,53.42,753.13,55.86,751.88Z" transform="translate(49.88 -245.81)"/><path class="cls-8" d="M37.58,889l.08-.05c.13-.12,3.21-3.12,7.12-10.68,6.5-12.6,10-27.78,11.82-38.3,3.27-19,3.77-40.15,3.61-54.51-.16-15.56-1.11-26.76-1.12-26.87a.27.27,0,0,0-.31-.25.3.3,0,0,0-.26.31c0,.11,1,11.29,1.13,26.83.15,14.33-.35,35.41-3.6,54.41-1.8,10.48-5.3,25.6-11.78,38.14-3.85,7.47-7,10.49-7,10.52a.28.28,0,0,0,.31.45Z" transform="translate(49.88 -245.81)"/><path class="cls-8" d="M55.22,846.61l.06,0c4.9-4,25.63-14.75,25.83-14.86a.28.28,0,0,0,.13-.37.28.28,0,0,0-.38-.12c-.86.44-21,10.85-25.94,14.93a.27.27,0,0,0,0,.39A.29.29,0,0,0,55.22,846.61Z" transform="translate(49.88 -245.81)"/><path class="cls-8" d="M57.19,835.41a.25.25,0,0,0,.1-.08.27.27,0,0,0,0-.39c-.68-.52-16.7-12.78-20.56-14.64a.29.29,0,0,0-.38.13.27.27,0,0,0,.12.37c3.81,1.84,20.3,14.46,20.47,14.58A.26.26,0,0,0,57.19,835.41Z" transform="translate(49.88 -245.81)"/><path class="cls-8" d="M58.76,822h0l11-6.86a.27.27,0,0,0,.1-.38.28.28,0,0,0-.39-.08l-11,6.85a.28.28,0,0,0-.09.38A.28.28,0,0,0,58.76,822Z" transform="translate(49.88 -245.81)"/><path class="cls-8" d="M59.57,810.44a.27.27,0,0,0,.12-.09.29.29,0,0,0-.08-.39L30.24,791a.29.29,0,0,0-.39.08.28.28,0,0,0,.07.39l29.37,19A.28.28,0,0,0,59.57,810.44Z" transform="translate(49.88 -245.81)"/><path class="cls-8" d="M53.24,855.1l0,0a.27.27,0,0,0,.07-.38l-8.9-12.32a.29.29,0,0,0-.47.33L52.88,855A.29.29,0,0,0,53.24,855.1Z" transform="translate(49.88 -245.81)"/><path class="cls-8" d="M45.76,801.52a.29.29,0,0,0,.16-.25.28.28,0,0,0-.27-.28l-13.35-.1a.29.29,0,0,0-.29.27.27.27,0,0,0,.28.28l13.34.1A.27.27,0,0,0,45.76,801.52Z" transform="translate(49.88 -245.81)"/><path class="cls-8" d="M59.93,801.57h0c.14-.08,14.86-7.88,21.59-13.38a.27.27,0,1,0-.35-.42c-6.69,5.46-21.36,13.23-21.5,13.31a.28.28,0,1,0,.25.49Z" transform="translate(49.88 -245.81)"/><path class="cls-8" d="M60.08,791.2a.31.31,0,0,0,.11-.09.28.28,0,0,0-.07-.39c-.1-.06-9.8-6.45-13.34-9.92a.29.29,0,0,0-.4,0,.27.27,0,0,0,0,.39c3.58,3.51,13.32,9.92,13.41,10A.3.3,0,0,0,60.08,791.2Z" transform="translate(49.88 -245.81)"/><path class="cls-8" d="M59.85,776.21a.37.37,0,0,0,.13-.12s1.22-2.19,2.5-4.85a33.3,33.3,0,0,0,3-8.09.27.27,0,0,0-.24-.31.29.29,0,0,0-.32.24c-.63,4.13-5.4,12.66-5.45,12.75a.28.28,0,0,0,.37.38Z" transform="translate(49.88 -245.81)"/><path class="cls-8" d="M59.45,766.8l0,0a.27.27,0,0,0,0-.39l-4.2-5.25a.29.29,0,0,0-.4,0,.27.27,0,0,0-.05.39l4.21,5.25A.27.27,0,0,0,59.45,766.8Z" transform="translate(49.88 -245.81)"/><path class="cls-9" d="M27.79,773.29a.23.23,0,0,1,.11-.11.28.28,0,0,1,.38.11A205.27,205.27,0,0,1,41,808.1a201,201,0,0,1,6.49,35.61,146.93,146.93,0,0,1-1.86,40.73.3.3,0,0,1-.33.23.28.28,0,0,1-.22-.33A145.79,145.79,0,0,0,47,843.77a200.86,200.86,0,0,0-6.46-35.51,205.68,205.68,0,0,0-12.73-34.7A.29.29,0,0,1,27.79,773.29Z" transform="translate(49.88 -245.81)"/><path class="cls-4" d="M40.58,807.48s-3.44-7.34-10.43-9.09a12.43,12.43,0,0,0-9.19,1S26.42,813.22,40.58,807.48Z" transform="translate(49.88 -245.81)"/><path class="cls-4" d="M40.05,805.67l.32,1.18s12.14-9,4.5-21.36c0,0-9,6.83-4.5,21.36" transform="translate(49.88 -245.81)"/><path class="cls-4" d="M54.82,804.14s8.85,16-9.52,24.16C45.3,828.3,42.73,811.17,54.82,804.14Z" transform="translate(49.88 -245.81)"/><path class="cls-4" d="M33.33,785.34s8.66-4.66,3.78-13.48C37.11,771.86,30.82,777.69,33.33,785.34Z" transform="translate(49.88 -245.81)"/><path class="cls-4" d="M32.9,785.37s-.91-6.51-9.25-6.92C23.65,778.45,23.69,786.21,32.9,785.37Z" transform="translate(49.88 -245.81)"/><path class="cls-4" d="M45.25,828.28S40.55,811,23.47,817.84C23.47,817.84,29.9,831.81,45.25,828.28Z" transform="translate(49.88 -245.81)"/><path class="cls-4" d="M47.64,849.33S45.9,833.91,60.56,826C60.56,826,67.46,847,47.64,849.33Z" transform="translate(49.88 -245.81)"/><path class="cls-4" d="M47.64,849.33s-17.59-.89-20.83-14.53C26.81,834.8,45.73,830.43,47.64,849.33Z" transform="translate(49.88 -245.81)"/><path class="cls-4" d="M47.64,870.53s-1.52-14,17.49-22.94C65.13,847.59,68.41,872.46,47.64,870.53Z" transform="translate(49.88 -245.81)"/><path class="cls-4" d="M47.64,870.53s-6.65-21.94-24-15.1C23.67,855.43,29.58,874.56,47.64,870.53Z" transform="translate(49.88 -245.81)"/><path class="cls-10" d="M26,781a.28.28,0,0,1,.09-.1.27.27,0,0,1,.38.08c1.65,2.64,5.87,3.43,6.66,3.56,3.59-3.36,3.41-9.39,3.4-9.45a.3.3,0,0,1,.27-.3A.28.28,0,0,1,37,775c0,.26.2,6.46-3.7,10l-.09.08h-.13c-.21,0-5.23-.71-7.17-3.83A.28.28,0,0,1,26,781Z" transform="translate(49.88 -245.81)"/><path class="cls-10" d="M26.62,801.59a.28.28,0,0,1,.36-.12c4.61,2,11.71,4.91,13.21,5.09.53-1.43,3.8-10.51,3.7-16a.3.3,0,0,1,.28-.3.28.28,0,0,1,.28.28,38.51,38.51,0,0,1-1.87,10.49c-1,3.29-1.94,5.87-1.95,5.89l-.06.17-.18,0c-1.45.12-12.4-4.6-13.64-5.14a.27.27,0,0,1-.14-.37Z" transform="translate(49.88 -245.81)"/><path class="cls-10" d="M28.34,820l.07-.08a.27.27,0,0,1,.39,0c2.69,3.3,14.74,6.79,16.12,7.18,7.3-5.36,9-17.2,9-17.32a.29.29,0,0,1,.31-.25.28.28,0,0,1,.24.32,38,38,0,0,1-1.79,6.81c-1.26,3.43-3.59,8.11-7.56,11l-.11.08-.13,0s-3.42-1-7.12-2.31c-5-1.85-8.16-3.56-9.41-5.09A.29.29,0,0,1,28.34,820Z" transform="translate(49.88 -245.81)"/><path class="cls-10" d="M30.4,837.29a.28.28,0,0,1,.09-.1.28.28,0,0,1,.38.09c1.32,2.18,4.63,4.71,9.56,7.32,3.42,1.81,6.55,3.08,7.09,3.3,4.66-1.3,7.46-5.58,9-9a31.31,31.31,0,0,0,2.24-7.22.3.3,0,0,1,.32-.24.27.27,0,0,1,.23.32A32.09,32.09,0,0,1,57,839.15c-2.28,5.05-5.55,8.27-9.45,9.32l-.09,0-.08,0c-.56-.22-13.7-5.42-17-10.88A.26.26,0,0,1,30.4,837.29Z" transform="translate(49.88 -245.81)"/><path class="cls-10" d="M28.57,857.9a.28.28,0,0,1,.07-.09.28.28,0,0,1,.39.05c2.44,3.17,16.84,10.77,18.34,11.55,2-1.07,5.12-4.11,9-8.82,3-3.64,5.45-7,5.47-7.05a.28.28,0,0,1,.39-.07.28.28,0,0,1,.06.39c-.4.56-9.82,13.6-14.82,16.12l-.12.07-.13-.07c-.65-.34-16-8.34-18.65-11.77A.27.27,0,0,1,28.57,857.9Z" transform="translate(49.88 -245.81)"/><path class="cls-4" d="M175,870.67a60,60,0,0,1,27.13-.5c14.47,3.23,23.27-8.77,16.64-24.2S229.5,830.86,234,828.71c8.38-4,2.73-15.1-1.66-22.28s.34-14.38.71-22.42-3.63-15.14-14.81-4.25-6.74,12.59-20.49,9-15.47,5.55-15,16.36,2.77,9.26-10.65,13-17.45,8.54-15.07,20S179.61,861.72,175,870.67Z" transform="translate(49.88 -245.81)"/><path class="cls-11" d="M228,774.2c3.87.13,5.34,4.78,5.11,9.81-.2,4.39-1.67,8.52-2.28,12.55h0s-3.18-16.3-6.25-9.64c-2.69,5.86.34,13.46-7.4,14.78s-11.15-6.44-11.5,1.82,5.72,14.43-6.66,20.57S179,820,180.82,830.41s11.82,15.7,2.93,21.55-9.44,4.95-8.31,6.87c2.48,4.22,3.18,8.4-.26,11.8l-.19,0c4.62-8.95-15.62-20.94-18-32.45s1.66-16.27,15.07-20,11.06-2.22,10.64-13,1.3-19.93,15.06-16.36,9.31,1.87,20.49-9C222.45,775.68,225.63,774.12,228,774.2Z" transform="translate(49.88 -245.81)"/><path class="cls-12" d="M227.18,781.16a.29.29,0,0,0-.14.15c-.16.41-16.09,40.76-36,69.36-5.73,8.24-14.65,19.7-24.68,27.5-6,4.64-9.53,5.78-9.57,5.79a.29.29,0,0,0-.19.35.27.27,0,0,0,.35.18c.15,0,3.69-1.18,9.75-5.89,5.57-4.33,14.39-12.64,24.8-27.62s19.65-33.07,25.57-45.61c6.41-13.59,10.42-23.77,10.46-23.87a.27.27,0,0,0-.16-.35A.3.3,0,0,0,227.18,781.16Z" transform="translate(49.88 -245.81)"/><path class="cls-12" d="M187.56,855.62a.27.27,0,0,0-.15.3.28.28,0,0,0,.33.22c5.3-1.18,25-.6,25.24-.6a.28.28,0,0,0,.3-.27A.27.27,0,0,0,213,855c-.81,0-20-.58-25.38.6Z" transform="translate(49.88 -245.81)"/><path class="cls-12" d="M184.76,824.38h0a.27.27,0,0,0-.11.38c2,3.41,8.87,22.22,8.94,22.41a.27.27,0,0,0,.36.16.29.29,0,0,0,.17-.36c-.28-.77-6.92-19-9-22.49A.29.29,0,0,0,184.76,824.38Z" transform="translate(49.88 -245.81)"/><path class="cls-12" d="M200.51,835.94a.28.28,0,0,0-.16.27.27.27,0,0,0,.29.25l11-.72a.29.29,0,0,0,.26-.3.27.27,0,0,0-.29-.26l-10.95.73A.2.2,0,0,0,200.51,835.94Z" transform="translate(49.88 -245.81)"/><path class="cls-12" d="M192.32,795.82a.29.29,0,0,0-.14.37l13.65,30.47a.27.27,0,0,0,.37.13.29.29,0,0,0,.15-.37L192.7,796a.27.27,0,0,0-.37-.13Z" transform="translate(49.88 -245.81)"/><path class="cls-12" d="M181.16,847.11a.29.29,0,0,0-.16.28l1.38,14.93a.28.28,0,0,0,.3.25.3.3,0,0,0,.26-.31l-1.38-14.93a.27.27,0,0,0-.3-.25Z" transform="translate(49.88 -245.81)"/><path class="cls-12" d="M189.77,805.52a.31.31,0,0,0-.11.09.28.28,0,0,0,.07.39l9.78,6.44a.28.28,0,0,0,.39-.08.26.26,0,0,0-.07-.38l-9.78-6.45A.26.26,0,0,0,189.77,805.52Z" transform="translate(49.88 -245.81)"/><path class="cls-12" d="M210,818.76a.28.28,0,0,0-.16.24.28.28,0,0,0,.27.28c.14,0,14.27.25,21.54-1.32a.3.3,0,0,0,.22-.34.28.28,0,0,0-.33-.21c-7.21,1.56-21.26,1.32-21.4,1.32A.32.32,0,0,0,210,818.76Z" transform="translate(49.88 -245.81)"/><path class="cls-12" d="M208.75,794.82a.28.28,0,0,0-.15.31c1.17,4.75,5.64,15,5.68,15.06a.28.28,0,0,0,.52-.23c0-.1-4.5-10.27-5.65-15a.28.28,0,0,0-.34-.2Z" transform="translate(49.88 -245.81)"/><path class="cls-12" d="M230,788.16a.26.26,0,0,0-.11.1c-2.2,3.28-9.29,8.41-9.36,8.46a.27.27,0,0,0-.06.39.27.27,0,0,0,.39.06c.29-.21,7.24-5.24,9.5-8.61a.28.28,0,0,0-.08-.39A.28.28,0,0,0,230,788.16Z" transform="translate(49.88 -245.81)"/><path class="cls-12" d="M223.32,781.78a.3.3,0,0,0-.16.29l.89,6.56a.28.28,0,0,0,.32.23.27.27,0,0,0,.24-.31l-.89-6.56a.27.27,0,0,0-.31-.23Z" transform="translate(49.88 -245.81)"/><path class="cls-4" d="M148.38,873.05a60,60,0,0,0-27.13-.5c-14.46,3.23-23.26-8.78-16.64-24.21s-10.74-15.1-15.24-17.25C81,827.08,86.63,816,91,808.8s-.33-14.38-.7-22.41,3.62-15.14,14.81-4.25,6.73,12.59,20.49,9,15.47,5.56,15,16.37-2.78,9.25,10.64,13,17.45,8.53,15.07,20S143.76,864.09,148.38,873.05Z" transform="translate(49.88 -245.81)"/><path class="cls-11" d="M95.42,776.57c-3.86.13-5.34,4.79-5.11,9.81.21,4.39,1.68,8.53,2.28,12.55l0,0s3.17-16.31,6.24-9.64c2.7,5.85-.34,13.45,7.41,14.78s11.14-6.45,11.49,1.82-5.72,14.42,6.67,20.57,19.92-4.08,18.11,6.31-11.81,15.7-2.93,21.55,9.45,4.95,8.32,6.86c-2.49,4.23-3.18,8.41.26,11.81l.18,0c-4.62-9,15.62-20.95,18-32.45s-1.65-16.27-15.07-20-11.06-2.22-10.64-13-1.3-19.93-15-16.37-9.31,1.87-20.5-9C100.93,778.05,97.75,776.5,95.42,776.57Z" transform="translate(49.88 -245.81)"/><path class="cls-12" d="M96.2,783.54a.24.24,0,0,1,.13.15c.16.4,16.1,40.75,36,69.35C138,861.29,147,872.75,157,880.54c6,4.65,9.53,5.79,9.56,5.8a.28.28,0,1,1-.16.53c-.15,0-3.69-1.18-9.75-5.89-5.56-4.33-14.39-12.64-24.8-27.63s-19.64-33.07-25.56-45.61C99.85,794.16,95.85,784,95.81,783.88a.27.27,0,0,1,.39-.34Z" transform="translate(49.88 -245.81)"/><path class="cls-12" d="M135.81,858a.29.29,0,0,1,.15.31.27.27,0,0,1-.33.21c-5.3-1.17-25-.6-25.24-.59a.28.28,0,0,1,0-.56c.82,0,20-.58,25.38.61Z" transform="translate(49.88 -245.81)"/><path class="cls-12" d="M138.61,826.76h0a.28.28,0,0,1,.1.38c-2,3.41-8.86,22.22-8.93,22.41a.29.29,0,0,1-.36.16.27.27,0,0,1-.17-.36c.28-.77,6.92-19.05,9-22.5A.29.29,0,0,1,138.61,826.76Z" transform="translate(49.88 -245.81)"/><path class="cls-12" d="M122.87,838.32a.29.29,0,0,1,.16.26.27.27,0,0,1-.3.26l-11-.73a.28.28,0,0,1-.27-.29.27.27,0,0,1,.3-.26l11,.73A.23.23,0,0,1,122.87,838.32Z" transform="translate(49.88 -245.81)"/><path class="cls-12" d="M131.06,798.2a.28.28,0,0,1,.13.36L117.55,829a.29.29,0,0,1-.38.14.28.28,0,0,1-.14-.37l13.64-30.47a.28.28,0,0,1,.37-.14Z" transform="translate(49.88 -245.81)"/><path class="cls-12" d="M142.22,849.49a.28.28,0,0,1,.15.28L141,864.7a.27.27,0,0,1-.31.24.28.28,0,0,1-.26-.3l1.38-14.94a.27.27,0,0,1,.31-.24A.19.19,0,0,1,142.22,849.49Z" transform="translate(49.88 -245.81)"/><path class="cls-12" d="M133.61,807.89a.32.32,0,0,1,.1.1.26.26,0,0,1-.07.38l-9.78,6.45a.29.29,0,0,1-.39-.08.28.28,0,0,1,.07-.39l9.78-6.44A.3.3,0,0,1,133.61,807.89Z" transform="translate(49.88 -245.81)"/><path class="cls-12" d="M113.43,821.14a.26.26,0,0,1,.15.24.27.27,0,0,1-.27.28c-.14,0-14.26.24-21.53-1.33a.28.28,0,0,1-.22-.33.28.28,0,0,1,.33-.21c7.2,1.56,21.26,1.32,21.4,1.31A.25.25,0,0,1,113.43,821.14Z" transform="translate(49.88 -245.81)"/><path class="cls-12" d="M114.62,797.19a.28.28,0,0,1,.15.32c-1.16,4.75-5.63,15-5.68,15a.27.27,0,0,1-.37.14.29.29,0,0,1-.15-.37c.05-.1,4.5-10.26,5.65-15a.28.28,0,0,1,.34-.2Z" transform="translate(49.88 -245.81)"/><path class="cls-12" d="M93.39,790.54a.2.2,0,0,1,.11.09c2.21,3.29,9.29,8.42,9.36,8.47a.28.28,0,0,1,.07.39.28.28,0,0,1-.39.06c-.3-.22-7.25-5.25-9.51-8.62a.27.27,0,0,1,.08-.38A.26.26,0,0,1,93.39,790.54Z" transform="translate(49.88 -245.81)"/><path class="cls-12" d="M100.06,784.16a.28.28,0,0,1,.15.29L99.32,791a.28.28,0,0,1-.32.23.29.29,0,0,1-.24-.32l.89-6.56a.28.28,0,0,1,.32-.23Z" transform="translate(49.88 -245.81)"/><path class="cls-5" d="M143.48,843.44s1.14-10.74,7.89-14.09,5.52-6.57,7.22-2.25,0,9.3-5.79,11S143.85,841.53,143.48,843.44Z" transform="translate(49.88 -245.81)"/><path class="cls-13" d="M157.3,883.53a.1.1,0,0,1,0,0,109.69,109.69,0,0,1-12.74-32.7A96,96,0,0,1,143,817.67a86.74,86.74,0,0,1,14.4-37.39.26.26,0,0,1,.38-.07.28.28,0,0,1,.08.39,86.31,86.31,0,0,0-14.3,37.15,95.55,95.55,0,0,0,1.55,32.91,109.23,109.23,0,0,0,12.67,32.53.28.28,0,0,1-.43.34Z" transform="translate(49.88 -245.81)"/><path class="cls-5" d="M143.57,815.42a16.47,16.47,0,0,1,10.52-12.71c9.57-3.77,9.58-4.9,10.25-5.67s1.17-.6,1.44,2.18c.15,1.64.16,9.4-8.73,13.35S145,813.69,143.57,815.42Z" transform="translate(49.88 -245.81)"/><path class="cls-5" d="M146,804.8s-6.67-7.79-6.52-16.41,2.14-12.47,3-13.13,0,1.3,2.14,3.3,6.16,6.67,5.25,11.19S146,804.8,146,804.8Z" transform="translate(49.88 -245.81)"/><path class="cls-5" d="M142.61,835s4.54-6.87,3.84-9.73-8.3-8.5-11.64-12.3c-2.24-2.54-2.94-8.7-3.86-2.75s-4.65,13.69,2.35,17.43S142.51,833.49,142.61,835Z" transform="translate(49.88 -245.81)"/><path class="cls-5" d="M149.05,865.41s1.69-15.25-8.85-16.87-9.32-1.77-11.21-5.38c-2.29-4.39-2.53,7.12,1.11,11.8s7.43,2.87,11.65,7.21S149.05,865.41,149.05,865.41Z" transform="translate(49.88 -245.81)"/><path class="cls-5" d="M151.88,872.44s-3.67-6.89,2.25-11.13,5.81-2.85,7.58-5.14c2-2.64,5.1,6.17.22,9.29C159.39,867.07,151,867.82,151.88,872.44Z" transform="translate(49.88 -245.81)"/><path class="cls-5" d="M152.54,788.8" transform="translate(49.88 -245.81)"/><path class="cls-5" d="M151.72,790.2s2.15-6.35,7.39-6.21,6.6.18,8-.62,1.37,1.46-1.19,3.13-4.13,4.48-7.24,5.24C153.05,793.14,151.72,790.2,151.72,790.2Z" transform="translate(49.88 -245.81)"/><path class="cls-5" d="M156.4,781.84a5.29,5.29,0,0,0,.45-3.3c-.29-2.09-.82-6.35,3.3-8.22s4.65-2.52,4.11-.94,0,2.42-.37,5.09S161.75,780.32,156.4,781.84Z" transform="translate(49.88 -245.81)"/><path class="cls-8" d="M151.45,869.64a.27.27,0,0,1-.08-.27c0-.07,1.67-6.76,8-9.58a.3.3,0,0,1,.38.15.28.28,0,0,1-.14.37c-6.14,2.7-7.73,9.14-7.75,9.2a.26.26,0,0,1-.33.2A.27.27,0,0,1,151.45,869.64Z" transform="translate(49.88 -245.81)"/><path class="cls-8" d="M133.83,849.7a.28.28,0,0,1,.21-.48,16,16,0,0,1,6,2.24c2.95,1.78,6.88,5.37,8.79,12.3a.26.26,0,0,1-.19.34.29.29,0,0,1-.35-.2c-1.86-6.74-5.65-10.22-8.51-11.95a15.45,15.45,0,0,0-5.82-2.17A.3.3,0,0,1,133.83,849.7Z" transform="translate(49.88 -245.81)"/><path class="cls-8" d="M144.69,840.58a.27.27,0,0,1-.06-.32c.13-.29,3.28-7,9.23-9a.28.28,0,0,1,.35.18.26.26,0,0,1-.17.35c-5.72,1.86-8.87,8.63-8.9,8.69a.27.27,0,0,1-.37.13Z" transform="translate(49.88 -245.81)"/><path class="cls-8" d="M142.3,832.53a.3.3,0,0,1-.08-.24,10.39,10.39,0,0,0-2.24-7.17c-3.47-4.42-4.75-6.27-4.76-6.29a.27.27,0,0,1,.07-.39.28.28,0,0,1,.39.08s1.28,1.86,4.74,6.26a10.88,10.88,0,0,1,2.36,7.6.28.28,0,0,1-.32.23A.3.3,0,0,1,142.3,832.53Z" transform="translate(49.88 -245.81)"/><path class="cls-8" d="M144.92,813.22a.22.22,0,0,1,0-.08.28.28,0,0,1,.12-.37c.1,0,9.27-4.43,12.26-6.32a.29.29,0,0,1,.39.09.28.28,0,0,1-.08.38c-3,1.92-12.22,6.31-12.31,6.36A.31.31,0,0,1,144.92,813.22Z" transform="translate(49.88 -245.81)"/><path class="cls-8" d="M145.6,802.65a.41.41,0,0,1-.07-.11s-1.08-2.89-2-6.55c-1.28-4.92-1.75-8.87-1.4-11.71a.28.28,0,0,1,.32-.24.29.29,0,0,1,.24.32c-.83,6.64,3.36,17.89,3.41,18a.29.29,0,0,1-.17.36A.3.3,0,0,1,145.6,802.65Z" transform="translate(49.88 -245.81)"/><path class="cls-8" d="M152.79,789.73a.3.3,0,0,1-.08-.16.27.27,0,0,1,.23-.31,25.27,25.27,0,0,0,7.38-2.18.29.29,0,0,1,.38.11.27.27,0,0,1-.1.38,24.73,24.73,0,0,1-7.58,2.24A.27.27,0,0,1,152.79,789.73Z" transform="translate(49.88 -245.81)"/><path class="cls-8" d="M157.38,780.63a.28.28,0,0,1,0-.38s3.27-3.56,3.78-6.24a.26.26,0,0,1,.33-.21.28.28,0,0,1,.22.33c-.54,2.83-3.78,6.35-3.91,6.5a.28.28,0,0,1-.4,0Z" transform="translate(49.88 -245.81)"/><rect class="cls-14" x="603.88" y="57.75" width="250.89" height="465.86"/></g></svg>